/* XPM */
static char *_5454e33cdbe4168ebd174889d032349HQD4PDop3K22qg1Q[] = {
/* columns rows colors chars-per-pixel */
"64 64 186 2 ",
"   c #000000",
".  c #0C0A04",
"X  c #040B0B",
"o  c #0B0C0C",
"O  c #060804",
"+  c #110F06",
"@  c #05110E",
"#  c #0E100F",
"$  c #181508",
"%  c #070E10",
"&  c #061314",
"*  c #0E1315",
"=  c #081A16",
"-  c #07181B",
";  c #081B1C",
":  c #071619",
">  c #131414",
",  c #161A1C",
"<  c #1B1C1C",
"1  c #211D0C",
"2  c #0A211B",
"3  c #2A240E",
"4  c #342E12",
"5  c #3B3315",
"6  c #2E2810",
"7  c #091E22",
"8  c #0B2424",
"9  c #0E2A2D",
"0  c #0C252A",
"q  c #1D2223",
"w  c #1F2A2E",
"e  c #0E2C32",
"r  c #0F3138",
"t  c #10343B",
"y  c #133C37",
"u  c #103129",
"i  c #242425",
"p  c #2A2C2C",
"a  c #26292A",
"s  c #232E33",
"d  c #253136",
"f  c #2E3132",
"g  c #28353A",
"h  c #323434",
"j  c #373B3C",
"k  c #393C3D",
"l  c #333738",
"z  c #453C18",
"x  c #17463C",
"c  c #51461D",
"v  c #544A1E",
"b  c #4E441B",
"n  c #675A24",
"m  c #766629",
"M  c #7C6C2B",
"N  c #133D45",
"B  c #2E3D43",
"V  c #194E42",
"C  c #15434C",
"Z  c #1D584B",
"A  c #174954",
"S  c #174A55",
"D  c #1A525D",
"F  c #1E5E50",
"G  c #33444B",
"H  c #3A4D55",
"J  c #3D525A",
"K  c #2F4046",
"L  c #236A5A",
"P  c #24705F",
"I  c #1C5865",
"U  c #1C5A67",
"Y  c #1E606E",
"T  c #1F6371",
"R  c #297C69",
"E  c #277766",
"W  c #206574",
"Q  c #226C7C",
"!  c #24727E",
"~  c #454545",
"^  c #4D4D4D",
"/  c gray36",
"(  c gray33",
")  c #41565F",
"_  c #445B65",
"`  c #475F69",
"'  c #4A646E",
"]  c #4E6973",
"[  c #4C6671",
"{  c #516C77",
"}  c #55727D",
"|  c #636363",
" . c #686868",
".. c #7C7C7C",
"X. c gray45",
"o. c #85732E",
"O. c #8B7930",
"+. c #907D32",
"@. c #2D8A75",
"#. c #30927C",
"$. c #968334",
"%. c #9A8636",
"&. c #9D8937",
"*. c #AF983D",
"=. c #AE973D",
"-. c #B29B3E",
";. c #A08B38",
":. c #BAA241",
">. c #C4AB44",
",. c #CDB247",
"<. c #D1B649",
"1. c #D6BB4B",
"2. c #DEC14E",
"3. c #E8CA51",
"4. c #E0C34E",
"5. c #236F80",
"6. c #247384",
"7. c #267988",
"8. c #5A7884",
"9. c #339C87",
"0. c #298194",
"q. c #2B879B",
"w. c #2E9095",
"e. c #3CB69B",
"r. c #38AB91",
"t. c #2D8EA3",
"y. c #2F95AB",
"u. c #2E90A6",
"i. c #3097AE",
"p. c #3199AC",
"a. c #319CB3",
"s. c #37ABAA",
"d. c #3CB9A5",
"f. c #34A3BC",
"g. c #34A6B8",
"h. c #39B3B6",
"j. c #658694",
"k. c #7498A9",
"l. c #42C8AA",
"z. c #48DCBB",
"x. c #47D5B6",
"c. c #41C6BD",
"v. c #35A7C0",
"b. c #36A9C2",
"n. c #38AFC2",
"m. c #39B3C4",
"M. c #3BB9C4",
"N. c #3FC5CA",
"B. c #41CAC9",
"V. c #48DECF",
"C. c #46D6C9",
"Z. c #49DFD0",
"A. c #4BE6C4",
"S. c #51EECD",
"D. c #50F3CF",
"F. c #4DECD3",
"G. c #4AE3D0",
"H. c #4FF2D4",
"J. c #51F6D6",
"K. c #53FDD7",
"L. c #54FFD9",
"P. c #4FF1CD",
"I. c #858585",
"U. c #8B8B8B",
"Y. c #949494",
"T. c #9C9C9C",
"R. c #81A9BB",
"E. c #A5A5A5",
"W. c #ACACAC",
"Q. c #B3B3B3",
"!. c #BABABA",
"~. c gray74",
"^. c #8BB6C9",
"/. c #8FBCD0",
"(. c #91BED2",
"). c #93C1D5",
"_. c #99C9DE",
"`. c #97C5DA",
"'. c #9BCAE0",
"]. c #C3C3C3",
"[. c #CBCBCB",
"{. c #D3D3D3",
"}. c #DCDCDC",
"|. c #E6E6E6",
" X c #EBEBEB",
".X c gray95",
/* pixels */
"                                                                                                                                ",
"                                                                                                                                ",
"                                                                                                                                ",
"                                                                                                                                ",
"                                                                                                                                ",
"                                                                                                                                ",
"                                                                                                                                ",
"                            , < o i .                   $ 3                                                                     ",
"                            ..T.k ].p ^ ^ < k h h h < O =.<.1 6 5 4 5 + c z + z 1 5 + z v + 4 6 z $ z b .                       ",
"                            I.}.Q.{...].[.Y.!.E.Q.W.k 6 >.<.v &.2.<.:.+.>.,.o.3.*.-.o.>.o.+ %.o.:.M 2.-.+                       ",
"                            ..].I.{.E.W.E.Y.W.|. X!.# n 3.4.%.=.3.3.>.>.+.>.$.1.3.>.-.;.M 1 %.%.>.m >.<.1                       ",
"                            | ..p T.~ W.E.f | E.E.X.  m m n $.O.n n o.n -.$.z o.o.$.c -.=.1 c :.%.c -.$.+                       ",
"                            O O   o   o o     .   O   .     . .     O   .     O   O   . .     . O   . O                         ",
"                                                                                                                                ",
"                                                                                                                                ",
"                                                                                                                                ",
"                                  O , , . o #   > , . # # + o   > o >   . , O o # o o > , , # . >                               ",
"                                  p ].!.~ Y.Q.a W.].I.I.W.U./ < ].U.]./ Y.].U...Q.I.X.E.].U.E.U...                              ",
"                                  h |.Q.~ [.}.( [.}.E.T..X.X .p |. X.XE.{.X.{.E..X XI.].{.~ T.|.j                               ",
"                                  p }.~.U.[.[.I.!.~.T.U.T.}.| k Q.W.E.Y.!.!.T.U.T.}...!.{./ / W..                               ",
"                                  + h l p i < i p < p i , h < > a # < < i k > < < p < p j < > i                                 ",
"                                                                                                                                ",
"                                                          & 2 2 = = = # O                                                       ",
"                                                      @ R l.A.z.z.z.x.l.9.x o                                                   ",
"                                                    @ 9.K.L.L.L.L.L.L.L.L.J.r.2                                                 ",
"                                                    E L.L.K.K.K.L.L.L.L.L.L.L.l.u                                               ",
"                                                  : d.L.K.K.L.D.x.e.#.E L L E E x                                               ",
"                                                  A Z.L.K.K.e.x = O                                                             ",
"                                                  ! F.L.L.l.=     * d H { { { ' ) d o                                           ",
"                                                X t.H.L.L.E   O ) R.(._.k.s , q g H _ B O                                       ",
"                                                8 g.J.L.K.F   s 8.(._._._           X 8.' O                                     ",
"                                                r h.J.L.J.x   K [ R._._.R.] ` G d d g j.(.d                                     ",
"                                                C M.K.K.J.V   G ' 8.(._._.'.'.`.(.).).'._.J                                     ",
"                                      o y x @   I M.H.K.K.F   d [ [ j.R./.(.(././.^.R.k.j.g   O                                 ",
"                                      R D.S.x   T m.J.K.L.@.  * _ ' ' ] } } 8.} { ] [ ' ` ,                                     ",
"                                    & x.L.S.y   5.m.F.L.L.e.X   s ` ' ' ' ' ' ' ' ' ' ) w                                       ",
"                                    u C.Z.c.8   6.n.F.L.L.D.V   O q J ' ' ' ' ' ` H d *                                         ",
"                                    t g.v.a.7   6.b.Z.J.K.L.l.=     X , w s s q = O                                             ",
"                                    C f.v.i.-   6.b.C.L.K.K.L.e.y O             X 2 Z Z                                         ",
"                                    A b.b.y.- O 6.b.N.L.K.K.L.L.A.r.E Z V Z L #.e.A.K.e.X                                       ",
"                                    D b.b.y.-   6.b.M.K.J.L.L.K.L.L.L.K.K.J.K.L.L.L.L.s.X                                       ",
"                                    U b.b.y.-   6.b.n.H.K.L.K.K.L.L.K.K.K.K.K.K.K.K.K.d.%                                       ",
"                                    Y b.b.y.-   6.b.f.G.L.K.K.K.K.K.K.K.K.K.K.K.K.K.K.s.&                                       ",
"                                    T n.b.p.;   6.n.b.h.A.L.K.K.K.K.K.K.K.K.K.K.K.K.H.y.&                                       ",
"                                    W b.b.y.-   6.b.b.y.9.K.K.K.K.K.K.K.L.K.K.K.K.K.V.t.&                                       ",
"                                    Y b.b.a.7   6.b.f.b.6.l.L.K.K.K.K.K.K.K.K.K.K.K.N.t.X                                       ",
"                                    U b.v.a.8   6.b.b.n.a.w.D.L.K.K.K.L.K.K.K.L.K.C.n.0.X                                       ",
"                                    S b.v.f.0   T b.b.f.f.a.M.B.V.F.H.H.K.H.F.G.N.b.b.6.O                                       ",
"                                    N b.f.f.r   W b.b.v.v.v.v.v.v.b.m.M.M.m.n.b.v.v.b.T                                         ",
"                                    ; u.b.b.t   T b.v.v.v.v.v.v.v.v.v.f.v.v.v.v.v.v.v.A                                         ",
"                                      r 7.q.8   I b.v.v.v.v.v.v.a.a.f.v.b.b.b.v.v.v.g.9                                         ",
"                                        X %     D b.v.v.v.v.b.6.0 0 t A I I D D q.b.u.&                                         ",
"                                                C b.v.v.v.v.v.N             ; T f.b.7.O                                         ",
"                                                N f.v.v.b.v.f.r           t y.v.v.b.U                                           ",
"                                                e f.v.v.f.v.f.e           I b.v.v.b.I                                           ",
"                                                0 a.v.v.b.v.g.0           T b.v.v.v.I                                           ",
"                                                : y.v.v.v.b.a.e           D b.b.b.b.I                                           ",
"                                                X 0.b.v.v.b.t.&   * p <   : D Y U S &                                           ",
"                                        O , >     t q.a.a.0.t     < k g #             # < *                                     ",
"                                      < h j h o     % 7 8 X     o f k k f < > > > > q l k j p >                                 ",
"                                      i j j j p > O           > s j j k k k j j j j j j k k l >                                 ",
"                                      O > i p h l p q , , q p j k j k k k k k k j j l h a , o                                   ",
"                                              o # > , q i i a a p p p p a i q < , > o O                                         ",
"                                                            O O O     O                                                         "
};
