/* XPM */
static char *result[] = {
/* columns rows colors chars-per-pixel */
"64 64 84 1 ",
"  c #2C2626",
". c #2A2A2A",
"X c #332D2F",
"o c #36312D",
"O c #2E2D33",
"+ c #322E33",
"@ c #353135",
"# c #3C3734",
"$ c #353439",
"% c #3C363B",
"& c #3C393D",
"* c #423C3D",
"= c #42413F",
"- c #3E3C42",
"; c #433E43",
": c #483F44",
"> c #454145",
", c #4A4346",
"< c #4C4947",
"1 c #46444A",
"2 c #4A454B",
"3 c #4D494D",
"4 c #504749",
"5 c #524B4D",
"6 c #56534F",
"7 c #58534F",
"8 c #4E4B51",
"9 c #534E53",
"0 c #584F54",
"q c #534F58",
"w c #555155",
"e c #5A5455",
"r c #5C5956",
"t c #56535A",
"y c #5B555B",
"u c #5D595E",
"i c #615957",
"p c #60575C",
"a c #625C5E",
"s c #64615E",
"d c #69615F",
"f c #5C5761",
"g c #5E5B62",
"h c #635D63",
"j c #685F65",
"k c #625E69",
"l c #656165",
"z c #6A6366",
"x c #6A6866",
"c c #666369",
"v c #6B656B",
"b c #6D696C",
"n c #706866",
"m c #70676E",
"M c #716B6D",
"N c #71706E",
"B c #6D6771",
"V c #6E6B71",
"C c #736D72",
"Z c #786F73",
"A c #726F78",
"S c #757174",
"D c #797376",
"F c #7A7977",
"G c #767379",
"H c #7A757A",
"J c #7D797D",
"K c #80777C",
"L c #817B7E",
"P c #88807E",
"I c #7E7B81",
"U c #827D82",
"Y c #858185",
"T c #8A8586",
"R c #858389",
"E c #8A858A",
"W c #8D898C",
"Q c #928C8E",
"! c #8D8A91",
"~ c #928C93",
"^ c #928F98",
"/ c #959191",
"( c #9A9495",
") c #9A9498",
/* pixels */
"MQ(((TEREWW//TPPTTTLT/dnaddzMDZMSGAckcggtvJJFbTWEQTSNPWTWWQ/WTW/",
"inMZSCGSSbxxsuiizzxxnKexaaaznZNnBGAVBvVVBbccNlvxNs63wuzbslxbbxDY",
"inxMFJIFxlguiriiadzaaM5dassdxnnzgcCbchhcvkjjxwlsllurw6abxslxMMNM",
"7nNKUIFbuugszzddxnnndn7nddaaazsahvBBBVBBhghvvwlNsDJbuasaaasbNDSN",
"7nDKDMVgtyyaalaazznznZ7xldaaidaaffyhCHZCvhhvZazzsbCMSDbeszxzzzxM",
"4nDDFZGVhhhhsznnxzxznM5zdsaadxbnh00hvbkhhjznCezzxlxDPJSHDMzhxSNM",
"4nKZSMSbggpyaznnMnnvxM4hhlazznMMmBmZmnjppnmnh5zmzlxSSbbFhuyaCJJC",
"iKKKSzltlchahjnnvzzzzz4azzzazbMCmmZHmpphmmjpjyzjCSbvxVle9xJDhyrl",
"4ZCCIVcgVcchaaadMzzajz5vzzvvzznCZnmjMzpzmZjnjimmHJZjbKERFvhy8wvC",
"5nzCHVBBAbllhaazzvzxzM5ana545pha00i005,0jnhja9hhpat925tyh2:29ee9",
"5iaCVcBVAbkgapjnzvmzvDeaue55wre54404<<>w0pype,388>282%-:2>:290w9",
"4ihbchBBVbkgaaajvvvzzCevUE~EEETLZZKKnJFPUUUEYHJYUUU!~UR~ERUUIIU!",
"0jnjyyBBBckjhaaazjlzjz5CzMCMvvvzr7rs<xlxnzbSCbNJHAvcCHUUUJvhhfgv",
"0nj08qccckjcjhaahalvza;lMCZZZCvzxdsx6NSNMaxbSDSRUUmyyZUUUEIBcytb",
"ej03ttgkkccczjjazhjvvz;yjzbHCjyrdsss=xssl3wwulucCAj98hCAZRUAj9tZ",
"eh9tVgfcckjvzjjnvzlzvM2ezzMvi<9zdxxx*sllz838wy3tejkfthcBCUZcchyG",
"uvkgguglkccbbcchMzzszFeaznvariparlxz5hujcyyjcchhkg9twbvVUc3hMhab",
"1gglgtugvvcxVVvvraMnaM7zaieeznbhhjbvechvbhhBBcccyftfuVVVvh3evhzH",
"tSIIIGIRGVBvvvvczlzzhz4ipyyphznzbbbzwhygvkcCbjvvtttftghcHIlhmahD",
"8ccVVVFIIIIGVvccMhzzvnyvzzmmMCDZbbblwlggjhvmckckvVVVlgggBHhhCzzC",
"O&$$$O$&9ty0::;;90hy0:;0q:::thy439te2ljjcghvccBjBVGVckxlbHhhCCvM",
"tcgtgtttqfkjkqqffhhhz029jfqhjjjhegly3zhhhghccBBvggkgccccvbljvzzh",
"gNcxVcxcjBAHZZZZmBmB~!!UmCABBmmADLUDaCbchghjhcvvftkgVxcu189aw0vv",
"gcgggggghkjkjkkkyhyqmBZBjqq0hfphhbCv9vkhcjvchhBBftytcut1ttvb95nC",
"tggtuhhjcvvBmBBjhp0qfjvccjfhhhyhFACM;bChhhchhhkvctqtyyyhjht9ehvM",
"tggggghcvvbCmBjjhfqffhjBvBhhkhfyvbCv2zlyjhhhggghcgt8qfjcjvhhhzMM",
"tcgghhgcvBcvBkjjjppfpjvMjCjhhjyevbSj9vvhvkcckjhhgbVAGJHCjkvvjjjz",
"tgxggagcjcjjjjjmjjhpfjvCjmjkvzjzCDDt9lvchhuyfhyqttgtucBCcbbMvzzv",
"gxcgggyhkhfhjjmmmjzaazvnBCMbvazJJHS09hhhjhhghclftq8qwtgbBbbbvzzb",
"gccglguuhhhhfjmmZmzzahznMmbnvrdLHHFj0bbcyhhygggffttgyttgCvvMCbMC",
"gxxcclughhhhjjmKZCMxzszzzvznnzzJZGJC2vvhvBBckbBBVbggygvCjghvCnvb",
"cxVcxcguyppppjmZHDMMddszznCDKJDJZSHM+581198::>21-181288>-%;3e922",
"0DFvCbahhphhq0hmxFFxsARGGFIIIGIIVVAs1sVILDCZHyHHUUIAGGqvGYYHFUUL",
"4jvnDnhMhhhfy0hjxNNccNIAVVVVAckcbxxl3bCSzjznZ0ZKZIABcB1cGFZljvCC",
"4zvvMzazhpfpq0qqggcgtcckccckgkkgcglkwSbzahjjj:mZIUIAvb2vBcy955yz",
"pJUnvZCzjjhhf099ggxNxgkkxVckggffkrsg9bvlvzzhj:mHIUUIGS8vSvye09hM",
"eNKMzmCznzjjhq00tgFIVgkVVVVckkkkhaza2hxczvjhm,vnIIUUII9kbgehayhM",
"5ezMMzhajjjBjhpq8tcVktgkcccckkkkhlvh>avbzhjzm:p9BAUU!R9chyehjyaz",
"arsDFZCbvvBBBjhkcgggtgkkggkkkkkkhhvh2lvvzvvzm;92qBIURRfvcczCCvvb",
"peesZULMvmZAmBBmIxg8qtgqkkgkffkkhhzh9vzzvvzzM,yw;fAIRIfBcvzbMvjv",
"azreraLUUUUUmCIkgkttgkqktfgkkffkhvbhhznzzjvvb&eg-qcVRR8vCylCvzmM",
"4hli:*9099p084qqtt8ttg1tftqqffkkhlhe5yhhhhher$jbt82yHI2CHhazhhbC",
"5ap5@X:2,::2::::188811$-q882qqqq905,;29920e0r&lcBt11cIwSUbhhjzMC",
"LLJJzLQ~)!~~UUUUIRIIIIkIR!^^^!RIHKKKJUYYGFHSJ3bVAVg-9GuBUApkbbMb",
"eerhrDUUELKHbguuglxckV8xVIRRHVchyphpjjjjbhhhb>lxgVc13VtjUAyjbzbj",
"zhzn5DUEEUUUBllklcxccN8cVIIGBcccvnjjjjjjhhvCJ3ccgft8tV8gJJehvabb",
"Dzzx*nKLJUUHvjclxcAxxN1gGGGbglcvZZmmnnvzlFUJJ3s8gtf89V9hHIyrzybm",
"nrzS4DmzZHUZhulgsgVcxG=txVVutfhvjjmZZmjh3bJvc8Vgfgc21VthvHtyh0jz",
"b6ux<sbNSFFNlsklhkjBBV1tgkgttfhhsVxlxggccVGVcqcklluu8GqgxVVcuugx",
"r5rd6xFFFFFASNxuhhkjcv1fgggklvvj<gNNxcxNVcVcktVvlcvl8x8ckVGINcsu",
"xxxxwNSJYFFGFAcgyfgggv2gqtggvvcgcsgNGGNccggtgtVclzvx8t-gukcVbxxx",
"NFNrwNFYYIFFxskxgyyugB2fgggcbBbcsycNrgcckggkxgVvCMbvkc1qccxVSFIR",
"6tw31xSIJIIGcgkxsftugc-8tt8ttgkl--2f818--=182@<<ee5>13$O11188595",
"gslu1ucxJIJAVcckkuugcV8tgggglcvAkttkVcgtcgcsu2hlbSvyyckklklllhla",
"RJRFwlvcVHGBcBBgksscxVwcIIIR!!RRIRRRINGRIIIFSrSFFLHCHIR!!!WRTWQQ",
"Sxbx>tcvcGVgfgBcsccggc8cggxAFAltgkgcVg8gGNNNz5adaaivHGIIIIUUJJKL",
"Cuul9hhvfvy0gBBBlslllb8svcVIHktfgtgtggt1gFNxl1MDISNNIRIVAVcgcNAN",
"ewhz9jytgkq8gBBBxxMNSb3gccAHHjhvkgt81tgt8Vxcs=bSFFIIIV8-q88886sx",
"albl2hhy9ckeyykMsdNNNl=uccAABjkbkgt81tgt1VVVc=xFJJGNcgt811189<3w",
"MMMl>yaa0vAbkjkCNxNNxb8xcccghhvckcVkgccgtGNxg=VGSSxgggcVcttgvxue",
"xzZM5reeyrazCHCjxNxsxNtssgt8tgckcxNGAAVtgFVcg-kbMbae8tcNGButuvza",
"xzNM7arpjyavMSDvssxssx<gVltwtgfygccxVNxtgGVck1ggw5,&-8tgcVvlalzh",
"dsd7=iasapzMjzMM66rxgr=xNxgggggtgggsgxctuGAAV1f855elVAcggkBVMvla",
"=45= 454*o*5425<#o=6<&.gcgcxVccxrsxsrgxt8VAAV-2&>%@$111$$$&8ee6w"
};
