/* XPM */
static char *result[] = {
/* columns rows colors chars-per-pixel */
"64 64 89 1 ",
"  c #1F1E15",
". c #211E14",
"X c #241F19",
"o c #222213",
"O c #252814",
"+ c #26231C",
"@ c #2A251D",
"# c #2C2B1D",
"$ c #302E1F",
"% c #2C3615",
"& c #2E3917",
"* c #2E321B",
"= c #333715",
"- c #32341D",
"; c #343B1C",
": c #393D1D",
"> c #2E2721",
", c #2E2B22",
"< c #2F2F28",
"1 c #322D24",
"2 c #352E29",
"3 c #343324",
"4 c #393525",
"5 c #363A22",
"6 c #3B3C24",
"7 c #36322A",
"8 c #3A342C",
"9 c #3D3B2C",
"0 c #3D3631",
"q c #3E3A32",
"w c #473723",
"e c #433D25",
"r c #423C2D",
"t c #493C2A",
"y c #402E35",
"u c #423733",
"i c #433C33",
"p c #483E34",
"a c #453E39",
"s c #493F39",
"d c #35401C",
"f c #3B431E",
"g c #374022",
"h c #3D4323",
"j c #3E422B",
"k c #40461F",
"l c #414B1F",
"z c #414324",
"x c #434B24",
"c c #43432C",
"v c #48462D",
"b c #444A2B",
"n c #4A4C2C",
"m c #5E472B",
"M c #455122",
"N c #50542E",
"B c #454234",
"V c #4A4435",
"C c #474D32",
"Z c #4B4A35",
"A c #46413A",
"S c #4C453C",
"D c #47493C",
"F c #4E493C",
"G c #514637",
"H c #514B36",
"J c #51463C",
"K c #524A3D",
"L c #594C3C",
"P c #455331",
"I c #495234",
"U c #5A513F",
"Y c #513B46",
"T c #4D4641",
"R c #4E4941",
"E c #4E4548",
"W c #514742",
"Q c #534A43",
"! c #594D44",
"~ c #57404D",
"^ c #564D49",
"/ c #594E49",
"( c #555145",
") c #5B5145",
"_ c #575149",
"` c #5C524A",
"' c #61544C",
"] c #65584C",
"[ c #6B5F54",
/* pixels */
"SVSrAQQWTWQQWF9c!WsQW^TSQTEFA7TDTAiASSvS00RSRRRS6850BcBBiBBVHHJV",
"VVFiSEQ^^WQWWFBBWW~WSYSWSSSFj7TDDTpASSi6549j9j0qBVrqWVAAiBAVSSVG",
"QSFpTQWQTWWWSJBi^WapSW^WSFKWq5jDTE0ASA46bexvbbc2LLJi^WWSSAVVW)`)",
"KVSiSE^QaATWKSA3auS^QWTTSWKWj3<0qa2804;)`)QQ((H3VVJ7qFQQKABQ'/QS",
"VFWiiQWApaASSRA@pWWQWTQQW(KWB3DATWQTSceFAASSASS1GGG1J^KW!WS`QRWS",
"SKQ0AQAASSTTTWr8`JSWS^^^QQKWi4YTAATTic;SSSTWSSS1SHJ$AKKVQ/QKRWWS",
"WKQ0aRASATJWQQ88WSWSJ^^QKJWW03BATTWTSS5BSSpATSV3BvL11VVZ~QFWQQQR",
"WSV4qSWTSTJQKsr8WSJSSRJJJJWW9*jTTYAAAA5SAAiSSSB3-J!1@@*546cpATTR",
"686*iQJ!SWir8pp2QQWTWWWKKWWW95333808r33AVVSSSFR:&9]'!QSKFZKSVip9",
"QK)e4^QQQW9uSJi1apiipiiasBAA9hB6jAQKG77KSSTASES5&8['/`'`/!L!!!!)",
"SSSA#A`!'SrJSS07KJKQKKJJ4*9Fj6RVDSHJS27KSSSSSA8f%4'FSSJJKQQJSDSF",
"FSRS#8)'TaSJQFri!GQQ^//^9$qc-78468837>1iBSATSAq:Oi`JJJFWKJJSJSSV",
"SSKv+iSrpSKSKU99HzJSAWW^r4445jKBpASSSi2SBSSTAAh&@^QFJSWJJSFSVVFS",
"SSFBoiAAFSTWQKw9mnJSS^Q^i64ihhZVBSSVZH0QVSSSJWV;9QKKJSJSSFSFSFSF",
"SSKB 9JVASW^KFtweZWW^QW^9xzhKZFSBDSVHJ0WGJAAWQL-8/QKJWWSFSSRSSSS",
"SFSp+uJSSSSKKSi4hVWQSWW^4fxhvSKDFWFV^W2TSAAJWW!i8QQHHJFSSKJSSJSZ",
"SFR^18JVJJBZFHrhhF`QSQWQ7-zzVJFWW^FASW7JSSSSJQQJ0QJKSHJSJSATSFSS",
"WTR^73ir4rtjVV95cW/SSQWQ2#;6HK^R^WAVA!8ASSTAJKQK7JKHZFSSFSTASSFS",
"Q^QS9z:-*$$**5>3vWFASSWWr6:vWFQQJiBASK7ASVSWQKKQ1jZZHFJJRQQ^^QWK",
"AAp9fze-S'cSvF0@zc9F^^WRihl6BDQQASFFZQ7AQSJWWLKW1hhzASASWWTTSTSA",
"SVAsVAV3s!H!K!u+3g90488ii65;cPKQ(QQ(Zn6AERWQJKKJ5g643#.1u809uiia",
"WWWWWSQ8p!JKK!sX;cWSKQ')))KZ#55e6774g-6rAABApiiB;6iVVr1'WWWWTWWQ",
"WTTSSSW8u)QKQ)V#NBJK^!JQKKLr8pvzcSAirApSJTKS/r:hh:;66g-GSKQ`^WQT",
"WTWsWSWqs!W!WLS,hBQQWQWWJJLiL!JWL!QWS`!^RQ^J/JuujhZblx;VSW`WJWWT",
"TSSSTsWqW!W!VKJ3gSQRWFASWWKBJsJWSsSip!JSRRSA^s826czhxx=STWQJSsWW",
"TTaaTsW0S!JsBQS6bFTTFFQSFSJBsJJSSsV9aWSFSSTT^u87-6fh-;-rSSsWWSST",
"TYasSsT0pSpSBJSbcKSSW^SSJVUBuJSSSps9AKSSTSRTQqaqr#-96#9TATsWWssW",
"TWAsAaT0iSSSAVv5r^SRWWSFJH]r9puuiri4Z^TSSDTT^a3412980#3SWSWsSSWs",
"WTAAAAT0aRSAZxh4qQTFSSFFSS_BAKSSSSFApQSSTDDTRS##$4a8338ASASTSSTs",
"TTSSTTT8qTABxh;hqQSSSFSSFVB8iSSSSSFA9SRSDRRSSQq6ZJ'WFS4pJDBASWWA",
"ai00i802qDZZc6hhiTSRWRWQQSj5iSSRSSRAjRTTEERRRRq4rVQSFR2@r4djaii0",
"-#*1@##+0q9r8e452TTTSTTTTS679AAJTSRB40777770q077eSKSSB<9c9ipuiu0",
"hc3rKAAAAiiAiBeA94i8ir8,9Sa3iSASFSSA59rSssJ8sJr#SK`^Ft4Q/!^KQKKZ",
"FF8A/WKWRWFWRQKQi:BBJ!Q4BEEjcJTTWTTS#6V!LJLuS!A$Q`^^^S3SQWWWKKKH",
")RqASSJWKSSJFSSK84VrtVKaARTqrSSSSFRA3SKQJJL0sJe-Q/^^^^8W/QQQQWQK",
"_S94JQKQFSFSSFFQ0jJrpGJiT^QiiWSTRWRB8!Q!pL]iVG62!^^^^^8W`Q^`__`)",
"Aa9p'WKQSFSSFSKH95ABJJQiiT~0iSssapS82spu3iV21$O,)Q_^^^,2i7paASFJ",
"eZiR!QJSKSWSSTVh7>44r712577>X1ii8789744790r8uAS9)_R_^^321,-1iitc",
"hBii!KFSSKFSSHSr3A^WA)KL)QDFa2QJWKQ(FTWRRFRFHWQjH_(`'QAVp0:6Kvhh",
"VS9i/TJKSSSFSFDD0SQTJ'`/HZZ/W8QJASSSSSSSDRSSSSS93498q<8A89:6pZBS",
"SFiiQTFKFZVSSFVS8V`RF/Q(HFQQK8!GcASJSSTRTTTESSFS1228uiiSAB64JGSS",
"SS9,^^ZP(FFRKFSF7VQTFQ^^^^^/W2JVASSTSTTSDDTSRRSR7J)/')!/!)r9SSVS",
"SS9X79jjjPBAiADS1iRABUQ!Q^^)S2JSJSFJSSTTDDDTRTST8JJSVJJJHKr6JJSS",
"SFi*5-*;*55--54-#5i7BKQ^(Q^WS8QKLJLJFASRTTTTSSTT2SJ!!KKGJ!r3sSSF",
"VcB-cJhPVcBHVQKB;$23BQQDD^)_J8JLKsJJSsSSDTSTSTTT8JJKJHKQKQjfiSSS",
"961=6VIFWbCF)HZH96:64BrSW^^(T2S!WLGJSSSSDSJSSSTT2pKVAHQLKKbhiSAS",
"86iJcvQFFCZKHZZHz::1iAAZH/^(W7Q!!WLSTSSSSsWTTSTT1SKSZK!KL!b;rSSi",
"6jJ/'BRFKFFKSHVV:#934Aahv/FFJ2!/WLJGJFDATSWAAWTT7HFSDFJQKQx%uSAr",
"9cDT!aSSWQKSSSVZ9g7g--4hBZh62YWWQApLGVZVSSSraTTT7SWWIRRDDFb=0RSA",
"eBAE^AKWQQQA44rBjfg;:3139jt620YppuuKHFDFWFAJSATW8SRRIIRRF(x;ipu9",
"cBVBCBRRRRWWSAFSFZh7WWA^WWWQ01ipAAi89800007880u4+qIIbjjBBZh:prrr",
"hrhffcQRSFRFSKSSFF5,ASSSSSSR8pAsSSA0iiqi28iiiiiiB706-ffhghgMe9rz",
"hhff6SRQSVSRSSJSSAi,0QSTSSST00sSSWW^^WQ(8s^WFFKSRA#5;hxfd;f=5c6h",
"KvzfBQRFSSFFFSSSJB87SFSSSSSTiuJSWJWHFW^K1qSSSSAVSA6(_QQ^F(DiQ_QQ",
"ASc;BRR(SJRRSJSJSAg3FKSTTSATr8AuAAWFFQ(Q4iFSSSASSB5(WTWARABTTTTS",
"AWS69RRRRRQWKSSVJSh3FKSTATSSi2aaSQWKKWW^aiFKKJVSSA5FSR^TB6STTTSS",
"SSFc6RRERRKRSSVVSvc7VFSAATSSr7ipWWWFKQQQAiKFASSAFBfEATTBcZFTSSAF",
"WSKB9WRQSZASSFGKVhB#AFTAASATA0pSKQWKFTSEiiKFASASSA6QERqZQSSSTSVS",
"WFWB6FW^RAi9pSZKAh9@VKSTTSATi8sJRQWKRTTFi4TSVASJSWjF^SBKASSSTSSF",
"SRA9-5SQVSJF9ASB9j6#SSSASASSu8SSSWKRSSSKi7RASSSSSFhASBVASSFSTFSS",
"RWKc27sSAAAYu84523@>SRADARTT08KAQQQQKJGHA4EFSSSRSS6BScSSHQKFRRSS",
"FTKA,i//)^Q//Q7#782@W_WRWQTR10SSSSVsAAip00WFSSSSSS6jVBSSQSSVSWSR",
"SFHi8QWWWSTWRK9$41,.3q888008X+>1@>@>1111@qRSSTASSFq9icASQWKSWWKJ",
"SSK8a^^QWKWQWK64JAApia97BiAAi,iASK4SVZVS8iWSDTTRVDq0AeASWTSASKSS"
};
