/* XPM */
static char *result[] = {
/* columns rows colors chars-per-pixel */
"64 64 63 1 ",
"  c #4B5053",
". c #4C5154",
"X c #505558",
"o c #4D5255",
"O c #454A4D",
"+ c #484D50",
"@ c #3E4346",
"# c #474C4F",
"$ c #3F4447",
"% c #313639",
"& c #2E3336",
"* c #373C3F",
"= c #383D40",
"- c #3A3F42",
"; c #44494C",
": c #34393C",
"> c #2D3235",
", c #363B3E",
"< c #43484B",
"1 c #414649",
"2 c #404548",
"3 c #3D4245",
"4 c #3C4144",
"5 c #2B3033",
"6 c #212629",
"7 c #282D30",
"8 c #33383B",
"9 c #464B4E",
"0 c #3B4043",
"q c #42474A",
"w c #32373A",
"e c #4A4F52",
"r c #4F5457",
"t c #515659",
"y c #353A3D",
"u c #272C2F",
"i c #303538",
"p c #393E41",
"a c #494E51",
"s c #4E5356",
"d c #2F3437",
"f c #555A5D",
"g c #2C3134",
"h c #252A2D",
"j c #262B2E",
"k c #292E31",
"l c #2A2F32",
"z c #52575A",
"x c #24292C",
"c c #53585B",
"v c #22272A",
"b c #54595C",
"n c #23282B",
"m c #575C5F",
"M c #565B5E",
"N c #595E61",
"B c #5B6063",
"V c #585D60",
"C c #202528",
"Z c #5C6164",
"A c #5A5F62",
"S c #1D2225",
"D c white",
/* pixels */
" .XoO++@#$%&*=-;:>,;<$12$$$3432<22112@345655784+#9OOOO;<++<0=4qO",
"++oo999$q0w=er.Xt@,-$;;0$0=*-3$$1q;O;q$3yui:p#as a#99O<11;q3p0@@",
"4-1;3-3-ywd0Xf.e+q$*i*12@p:y-$$3-03$q<;O$5i:4e++ a#9O;1202q$44-*",
":dy-:%,,g%w-9;0p,$O-5i-*4-=-@12@9;1@443@2&%ii--3O<qqqq1$0$q1$$0,",
"*%yp:y-p>-$$$pyp$22p8-*h=0$1q12$221qq<<<:g=,&w:44004$22$@q<qq<20",
"py=p*3$,d$Oq200<03@,d*0%,01<q2$$4@1q1@-=7jp-iwy$=*=-3$$$2q<q<9;2",
"*=0-0O2gy$2@q<2q:=4ykd3243@1q12@ #2=%>lkyl:%5w,240-03@@3@211;#91",
"*02@1.<u@q409a2-O-y:w=4y<$4@q;q$,ikjgp+zX=ijx%=112$@@@3003$2;#O2",
"=*aqe#x:;<q2@30--p04-*4;e90=4:llx5,<tfe02;$djg-<31q$@2$000pp@O#O",
"$8q<o9h*1q;OOO;<23$q<q;a+ @&g&d8 srrXcXe@$1@:gi-#+O12q20$2$@q9O1",
"282<Opv-@2<9+aaa;<;a eaeaXqkjw@#tbcoaesX+1<a$guiOO<1<9O1$211;#;$",
"0*<38knp@@$21<;Oq;+..e#9  0l&0#z2Oaa9O9#me<O2%7k4$q<;;;;4@$$<#O2",
"-=0%5%%8q24p=p03-1+  a+#e3g&422+;O+  +<2Ma34@-&x:0<9<22<$2$@1O;2",
"0w>5y+9dOq3=,,=p:4;a.o +9y7:9q=0aO<9a+;<93,=$@wj7d0<;q;aOOq$1;q3",
"=57yqtX:12@4--00=0@;oz 1,%5:<1**eq@2<qq;2yw02p88u7dp21qO;;<1q<2-",
"i7&q#es0043@$$@@@401oc#*6kl>=0,yz ##O2$19,8$@iw1:>l%==y:4$22q<@*",
"&,$$-*-$,4-,*,=q23p-1qyxx&-2<q-iO99O;<q23=*-=wy4;p57i=:l%w5*@=8v",
"11$3003$8849q02 30p,w>k70$1<##2,4aXa;#O$-*=40*-1a+28l5dw&y&ig7:y",
"eO$@2q232d-X.;O;433yljd4$$2;e.;-w+b Oa#@p*-113$#eXr2il>%5w55770q",
"<$@19#10a>w+aoo4q9q:5w1.2q#szr93d@ oszzr==@OO2< +osaq-i775xdp491",
"$@@1;O<23>w0pabq9e2&d<r tbNBmXa9,8p#XXzM:,3##;+taosoaq,l7lu*O9a@",
"O<2@$1O#%*<4g,9<3$*&0bBtcbfbraes1&u8-8i,dw0O#O f.zboq0*ylww41@O2",
"9<$3$qO9w1s#:5i,:%i,ObVM aae+O9eayuk>uvni84;;1#c tza4,8wdp=220<2",
"234$;9;18$as#8u&,>d3Oq; tooXr+q2.$:8p34py*@;141.#ea;@=dj8-*<+<O0",
"<$q$-# =$#.ee+4&>nd@@OX.cXsro#<<O2=wy44*=,:%diwy%ww8,yd78,4199q3",
"@@12@<1:;9+aa+1-&u8q<atoXostX ##X;%6C7>>l>%:::8wdg>w8%iw*8:4q1$2",
"2<$3$0yy#<qO#OO9&kw32#rorsstra9#;2py*44p&glkkgdw=wdigh7%X92<9<qO",
"#a3*4yd-9$@<;1<a8d%*39stbtroa<q;$<aXffs9te2,&kjhhju758$eX q3@123",
"q<py3*i0<$$;;$298*=4O.rtmzseO2q#Xs.o.a;1e.Xcz 1-jgg7d1rcOe904#a2",
"yp=-q2,822<9O12ql,-$ o#+tse+;q#ooe#+#;qq@1+tmVcs@3*%*; aatrq$9#2",
"p=31<#$g-2O;q123h:,p#a1<9OOO<19o119or.aebX.ea920@il,O rcooeq*i%,",
"#1;<2eOky$<$@2$-gp:wq#<a3@1<1@q+ #9aaOO+ .rcMza1#5v-e;qob ae@gi1",
"2O<3<.O:&$q-4$0=x5>dpO93@ii1a2@91#e;1<##Xstmba<O9h&2q<2;Xz.<2: 4",
"<122;9<3kp342$*:%7j&,p<r4ww$#;<a9  #;9+##zZA.1;rOhd1q;qO#a+;<:a1",
"O@4qO12<xdy-q@y,Oyl>w:0O$-p3;#++a e#9++9<zZbO2#r<h%qq;<#;O+##8<O",
"9$41Oq@4jlg830=@#<,lgy8k##q@1+aO#9O;9##OO..9;+e#$hwq1;;+.+.a w-#",
";q$@;O0>iil5w:*q@Oqwkgd>.s+$2a ;O<q;9+++#+;$;..O-x8q2;Oates#.w%;",
"<;1@1q,j,pwlg>i-<+o;gS>+.sa$2+e9O<;#aa s9a+;q9e *xy<2O# sas<.y5@",
"<121@,d5&0-i>5kg31O2>6i+oo#$@<Oq#9+ e+.z ea#q2;e*jpOq#es.ezqX0j,",
"<3$;4gl:6=$,w&jxv5>uu%*:ro#24334##eoe9ezz+<O;$@q*70#<a.tssmOf2n&",
",0@-d5p p7>8-2wlid76jw,weo;@2,=r. a9;;#e#ea#99q4%k=.rzbecM.sb-6g",
"5,0,i:41s4%7,a$==%7uip=81a@&&i-s+O12<9aaaee#q@338l&0O.XoXr zz*xi",
"7:,di310q92%2s@3ep55:=y%>21ywy=@q3p0q+ea 9O+O0::555* cbNMXtMe%j>",
"iwdg81;@q.qk%04V.pkliw:*u*qq13ydp==3;+a+ 1$ae0&lh5xjp$1sAMmt3&kj",
"dkud0qq1$O<*4=wz-il>dd8-,8pO#2*%w,3<9####1192w&y@1%nuu5-+oo$%:yl",
"uvh82q1230<oNag:%8*p:>gd0d=.te2yi,$9####<<;3dk,e9 90y&k5>*ygi3@:",
"lkld=2<1o40@a 40,$;2*%>5wk8;as 0w,4<+ea+;108d:1.=-1<30y7jghjp@y:",
"y=wug39<$y332 <4pqO3=04-&nxu5<z9y:*@#..a+0>>0a+$+4430+s2%ivl<px5",
"; .2&j>=w2 a;;a 145j4tbzM.3g6ny#=,,3+s O8w:3# #1q<q@@<99Oeqduw3@",
".orX $%j-19+aa;@3%>@e3*Oaa  1%hCj&p2qqqq%-<O12;a<q$@q##<O;3,p9o.",
"re#eXs;-gg>,Os <i&psry&<OOezc#,glu7ip0,ipqea13<e<13@O aq+2-$ bfz",
"#Oq2q#sz;0%d8*yi><seqp-9923;.rss4%uugddd+999##9;<1@@<eeO $0OXX.a",
"<9+#;<9aMrO-d7u7,cN<*=3q;$31O99+q;q*uvw#o+;9e.+;q<13$Oa+O@$as+<<",
".a#+e #<;9#<pd&wy# 1-*p19<q<q$3$<O#$ik*.ae.e+9+aq;q@@qO943<.o#O+",
"XeOOess OOO;0d7k&p4323-$O2@211qO;$34,wp9# r.#<9a<<q$2<130qesoee ",
"+ ss.a##aq3@4y&gw@3*@;4y-*=$OOq21q;$%lpX   ea#O<<q22;9@y1aXXo a+",
" a++aeee9q9a<3:ud3$0$q2104$1<<q1O#14-y0  osoe#O;$##1$<2*s+Oa.e+a",
"o ee   e;$<9q@=5d320$1@$4@2q<<<q1<q1@8yOO+.s.+;qe23#.O@3 ++ea#+.",
"o ee . e+q;#q2-&d@13$23@@$2q<<;<212<$%8#O+.o.e++O<O+1=3a#+aa9;+r",
"eaae.o.  O99$-87d2;$113@$$$21q<<9q@24&8 +aa+#+e ;.e4,@+e##9O;Oas",
"++a.sXrs9q;<=%gn&29q<<$2$@@@@21q+O224gg$<O#+#999oOp*9Mt1a9q1<+ee",
"ae stztX;q9qyiw&l@9<O;1q$@343@1q;9<<$dh501+. #q$1y:;zr#<e#1@1+e+",
"ae orXs.9;#2i&=4h-;<;<1<1$344@1<29;q<=ljiy42230p,p;se$2aa+<3@;a+",
"++a . a#O<;pjj,$6*q1<<1<<1@43$q;29q@<1,ihju7k5dw<oX+O++<#a9@01+e"
};
