/* XPM */
static char *result[] = {
/* columns rows colors chars-per-pixel */
"64 51 33 1 ",
"  c #00000E",
". c #000015",
"X c #00011C",
"o c #09091E",
"O c #000323",
"+ c #030827",
"@ c #0C0C26",
"# c #00062A",
"$ c #01082D",
"% c #0A0D2A",
"& c #0E102C",
"* c #13142D",
"= c #17192F",
"- c #000731",
"; c #000B34",
": c #090E31",
"> c #000E3A",
", c #031037",
"< c #0D1232",
"1 c #01113E",
"2 c #1C1C31",
"3 c #000E41",
"4 c #001343",
"5 c #041846",
"6 c #011648",
"7 c #011A4C",
"8 c #011D52",
"9 c #112049",
"0 c #022256",
"q c #012359",
"w c #162754",
"e c #142957",
"r c #1D2B53",
/* pixels */
"O++OO#OOO$O+###O++#+OOOOXOOOO#+##O+-####-;>344444843>;#+#+#OO###",
"OOOOOOOOOOOOOOXOOOOOXOO..OXOOOOXOOO+##+#-;>>46788874;;$$OOOOOO##",
"O@XOXX.OX.OOOO..XXXX..X..OOXOX<<OOXOOO##++;>4788887>>##OOOOOOOO#",
"OOXXX.XXXX.OXO.X..........XXOX@%XX.XXOOOOO;>47774743;#OOOOXOOOOO",
"OOOXX.XXXX.OXXXXX.X........OXOXOOOOXXOOXXO#>6366763>-#OOOOOOOO##",
"+OOO.OXXOXOOX.OXXXXOXX..X.XXOXXOOXOOXXOOOOO->>9w363;##OOOOO#OOO#",
"##OX.XXoXOX..XXXXX.XOX.OOOOOOO##OOXOXOXOXOO##;333>3-+OO#OOOOOO##",
"#OOOX..OX.XXXOOOXOXX+OOO++OOO##OOOOOOOOOXOOO----;33##OOOXOOO#OO#",
"#OOOXOX....XOOOOOOXOOO#O###+##+#OOOOOOOOOOXOO#---;;-##+OOOOOOOOO",
"-##OOO.O2XXX.OXXOXOOO#O#O+;<#-#+##OOO#OXXXX.X#;--;-#+#OOOOOO+##O",
";;$+OX.+%OOXXXXOXO##O#+###;;-##;-#OOOOOXOXXOOO###-##O#OOOOOO#OOO",
">>$$OOXOXXOOXOOOXO#+O##O#>;;;;;$-#O#OOXOOXXXXOOO#####OOOO#OOOO##",
"34>;#OXOXXOOOOOOOOOO#+#$;>>414>>;;#OO#O.XXO.OOOO-#####OO#+#+OO##",
"441>-OOXXXOOXXXXXOOO##;;3464464>>>;#OOO.X.XXXXO#####++OO###+####",
"0711-#O......X..XXOO#-;4677777444>;#+OOO..XXOXXOOOO##-$+#;;;##;-",
"0064-++O.......X.XO#-+;>7680q8884>>;#OXXO.XXOXOO#####>>;5r>>>>;;",
"00541+O.... ..XX.OOO##>68800788754>-+OXOXOXXXOOOO###;;;>>;1;;>;;",
"0764,$O. .....o.X.O##+>478077887e5;;-+OO.X.OOOO#O->>>>11>>>>>;$#",
"5741>OX........XXOOO#>14778887664,;#+OO..X.XOXOOO;>3>>1>>;>>>;-;",
"7511;OX......X.XXO+O->167788741>>;#OOO.XOXX..OOO+;>31>411>$;;#-#",
"444>$OX.XX..XXXOO#+->>147764441>+##X.OXXXXXXOOO++;>44>11>>;-#+--",
"444;$OXOO.XXOXXO###;>447744411>$OOXOOOXOOXXXOO#O#>>>441>;-#+++-#",
">1;;#OOOO.XX.XOO##-;>444741>;;#OOOOOOOOOOOOXOOO#O;>34>3>;;######",
";>;##OOXO.XX.OXO###;;141541;$$#OX.XX.XOOXXOOOO###->4431;;;$OOOOO",
"$;+#OOX.o.O.XOOXO#;>33344>$#++OX...O.XOOO+OOOO##+;;>>>;>$+%OXOXO",
"#-+OOXX..XX..OXO#-->>>>;>$OOXOX..X.XOOO+OO####OO+#>;>>;;OOOOXXXO",
"##OX.O......XX.OO##;;--$#OOXOX.XO.XXO#+#O;;#######>>>>;#+OXXXXOO",
"OOOXOX.....XXXXXO#-###+OOOOXX.O.XXXOOO##;;;$##O#--$>>>;-#OO..XO+",
"OOOOX....X.XOXXOOOOOOOOXOX.X.XOXXXXOOO#>3>>;;#####$;;>-#+OOXXXO+",
"XOOO..X.X...OXOOOOOOOX.....XO.XOOOO#+#;>4>1>-###+O+#-##+OOOOXOO#",
"XXOXX...X..X.XXXXXX.... .X.X..%XOO##$$>4>;;;#O###O#++##+OXO..OO#",
"OO.XX.o.........2o..........XO+OOO#++#>>>>-#O##+O###O#+OOOO.XOOO",
"XOXXXXX.  ....X.o.  . .......OO+;#;;$$;;>;;$OOOOOO+OOOOOOXOXXOXO",
"OXOOOXO. .  ....     .....XOO##;>4>1;>,,;$O#OXOXXXOO#O#OOXXOXXOO",
"OXO..X.... .. ..   ....XO+XO#;>14>111>11;##OOX.XOOOOOO#OOOXXXOOO",
"OXX.X.... .. ...  ....XXXOO#->44414414411;#OOX.XXOOOOOO+OOOXOXO+",
"OOXO.XX..X..... ....X..XXOO;;1444774444>1,$+XX..XOOXOOOOOOXOXXOO",
"+OOOOXOXX..............XXO+$>114446464441,$+OXO.XX.OXOOOOOOOXOOO",
"##+OOXXXX.........XX...XX+##>1>341>44444611$#OXXXXXXX%OOOOO..OOX",
"#-+#OOOO.. ...........XO#O+;;;>>>>>113>4441>;#OOXXXXXOOOOXOXOOOO",
";;$OOXOO....X....X....XOOOO+-##;;;#>>4>>;4111$OOOXXXXOO++OOOOOOO",
"#+:OOOOOXX..X...........OOXO#+#+####;->>>4461>;XXOXXX.XOOOOOOOOO",
"#+OOXOOOO.o......O...X...**XOOOO++#O+###;$114>;+O..O.XXOOXOOOOXO",
"#OOOOXOOXX........XX..X..ooOXXOOOOOOXOO#O>1141>-OX.....OOXOXXXOO",
"OOOXXOOXX..X................OXXOO..OOOO+$>>;>3>;+X.....X.OOXXXOO",
"XXXO.XXX.XX...XXXXOXXX..X......XXXOXXXOO##;;-;;-OOX..XO....XXX@O",
"O......XX..OX.X...O.....X..X...OXXX.XOOO+#;##--#OX.X.........XOO",
"O...........O..XXO....X........X...XOOOOO#+#++#OXX.XX.......OXO.",
".........O..O.XOXX....X...X...OX.XXXO#O#$##OOOOOOO%OOXX..X.XOOXX",
"XXX.X..XXOXXXOXOO.X.....XX@X..OXXOOOO#+#$O###OOOOX+OXOOXXOXXXOOO",
"OOoXOXXOOOOOOOOOOXXXOOOXOOOOOXOXOOOOO###+####OOOOO#+O#OOOOOOOO++"
};
