/* XPM */
static char *result[] = {
/* columns rows colors chars-per-pixel */
"64 64 21 1 ",
"  c #0A0706",
". c #0C0807",
"X c #0E0A08",
"o c #130D0B",
"O c #17100E",
"+ c #19110F",
"@ c #1D1411",
"# c #211714",
"$ c #251916",
"% c #281B17",
"& c #271B18",
"* c #2A1D19",
"= c #2E201C",
"- c #31221E",
"; c #352621",
": c #382722",
"> c #3C2A25",
", c #402D27",
"< c #412E29",
"1 c #45312B",
"2 c #49342D",
/* pixels */
">>>:>:>##>:>>;>1>2>>:>;>=o1>><2>:>>>::>:>@$>->>;>1>2>:-:-<*O1>,<",
"**=;*&&o--#$#==--=*--@@*@@>***=**=**--=$$O:=$#@==-====-$$=#+,%*=",
"$*=-=&*o-=###*==******&=@@1&=***$$$*=-=$*O-*&#$===&==$***=+#,$**",
"%**&*%*@*=#*&$==*====*$*@@>&=&&=$$***$***+*=#=$*==&====*$*++,$**",
"%*%&&$&#@-@@*===*=--=*&@@X:=====#%%**$$$*@#-##**===&;==&$$+o-%==",
"*%$%$$&@$;$=&*===*:-**&&@X:=====*%**#*$$$+$-$&&*===&:-&$$%+o>===",
"*%$$$$%O@-=$@==;-===&&&=o@>#$====%*%#$$$*O#-**#*;;====&=%=o#-$*=",
"$##*%%*$.@$@@$=-;;*++@@OX@@#*==&$$##$****$.@$+@*==:;=OO@#O.###%=",
"oO#+oO+OXXXXXXOO@+oXo.ooXX.X@@@XXoX+#+oO@oXX..oooo@OoXXXXXXXXO+@",
"O>>-->>-$@$=:->@.@>>;;>-=@@:;->>$.+>:-->>=##$-:->@ &>:::--*+$---",
"$-#**=-->>>===-=o--**=*&-:>=@$===X*-#**==:>>:-*=-=X;=&*==%---*$*",
"=-#$$$*====$====o*=@&***$&@$&*$&*O=-#$#*====***=-*X==#&*==%%$$*$",
"@>$$$**-===-==&=O==*===*&&&@&&$$$@@>$*$**===*-=***o-=*=-=*$*$$&&",
"O>=*$*****===@$$O-=*=*$==@&&$$@$*$O,=$$***=**-*$&&o;===*$=*#$$$#",
"$>*$**=*-*==&@@=o=;$**$&=&&@$$$&=#*>*$****-*==%##*o--#*&$*-$&#$&",
"+&$@+$***$=-=&&$X$*@***$=*=*&&=&*#+$#@+$=**$*-=%*#o$*$&**$=**$$=",
"@@+@@OXoXXX+++O.oXXoO+OXOooO++OO@@@@o@#OXXXXX+++oXooXoo@oooooO++",
"<>>>2>;@XO@#@+$-==$+X X#@O@#O@=>>;><>12>-+OO+$++&-*&#oo o#@o$#O+",
"$*&&&*=@X#>--->-----=*->@$>:>:;$&***&&%*-+.$>-->:;:::;-*->@*<>>>",
"==*=*==&X-=$=$=$*$-**==*+=>&==&$&%****=*-$X-=*$*$%%$*&***%o*>***",
"*$*==--*o-=$$$==$*=$#$$*@=>=&&==$%%&*==--*o:$$$$**&***$$$=@*<***",
"$$$*=---O-=$==$=****$$#*+=>=&$=$&$%$$**--=O>*******%**$$#*@*>%$*",
"*$**--=*o>=$====*$*$$#*-@&:==$&&***$**=-=*o:=$===**&%&$&*-+*>**&",
"-&*=--**X=#===-=*$**=**-@&>===&&=-*&*=--=$O=$=----*%&****-@*>--*",
"$#$**&*@XXX+@@@++##***=*o#-*&$@@$@#$$%$$=@ XX@@@@+@##*****o#=**$",
"XOo+@#@@##$#@@@+oXOo@#@@&$OoO+@OXXo+o+##@@$@##@@@+o.oo##+@*$OoOo",
"=::>>:::;;::>>:>+=:>>>>>;-::>:>1#X=:;>>:::-;::>>::+=>>>>>>:;::>:",
":#$$$&$$@$$==$$@o-***==$#$&==&==#X:@$%%$&&#$&==$#@X:%**=*$#&&=-*",
"*-*=*$#*=&====$$.--$***&#&$&-===#X*=%=*&#****===*$X-*$*=*&#&#*==",
"o:***$#$$&$====@ $-#$%$$$#$*==*=%o+:%*%&##*&*===*@ &;@$$$&$#&&-=",
"o:=*=*$$====*==@.=-$$%$$$$$$====*o+:****#*&****==@X=-$&$#&&&$&==",
"*>===-=$$$=$$===o--%$$&*=======;=o*>==--=*$&*=&*==o:-$#*&**=====",
"&**=%#%$$@#**&**+%-$$#@$%&#$%&&==o$%-=%$*$$##**&**O*=%$#@%%%#$*$",
"@@@@@$+oOo+OOooOo+++oOOooX##+#@+++@@@@@#OoooO+oooOO++oooooXo##+#",
">>;;>;>@#>-::->,<<::-:-:%o1,>,1>:>>>;;>;>+$>;:;->>>1>>;:;>%o2>>,",
"%*=:*&&O;=#$$**--=*-=$#*#+,&=%*%%%%**:*&$+;*#$$*=--=*=*$#*#@,&**",
"&*=-***+=*$$&*==%*=*%%*=#+<&**=*$$%*=-*%*O-*$$&*==&*=***%=+#<$**",
"&%%%%&*@&-#%$**=*====*$*@O<$*&*=$&%*%%*%*+*=$%&*==*===**%%@+,$=%",
"%*%%$$*@O;#$**==**--=*$#@X;==*==#%%*&&%&*@@-##**==*=;;=&$$@X:*==",
"**$%$$&@#;$%&*====;-*&&&+o;*====%&%%$&$$&+&-$&&*==**;=&&$&+o:%==",
"*%$$$$%+@-**$&-;-===$*$=o#:#*====%*%$$$$&O#-*&#*;;-===$*&*o$;#*=",
"#@$*&&*$X+$@@$*-:-*OO@@oX@@#&=-&$&#@$*&&*$.+$@@&&-;;*+o@#oX@@#&=",
"o+$+oo@oXXXXXoOX@ooooXooXXXo@@+X.oo+#+oO@oXXXXXooo+oooo.oooXXo@@",
"+>;;;>>;$$$-:-,& $,:;;,;*@#>;=,<$.@,;;;>>-$$&-::>$ $>>>>:-%@$>;=",
"&=#%&**;:,;=*===o==&*=*$-;;&##*=*o$-$&%*=;:>:=*=-=X-*&**&&;;;&$$",
"*;$$$&*===*%*===o*-#&***&&&#&&&&*O*;$$$**=-*&**==*o=-#****$$#$$%",
"@,$&&%=-*====*&*O=-*=-=*&&&#&&&#$@@,$$$%=-*====*&*o--*==**&%$$&$",
"o>*&&***=*=-&&&*o==***&**#&&$###*$+>*$&%**=*==*$&&o;-***%=*#$$$#",
"&>*%&***-**=&#$*o=-$&&$*-*$#&&&*=#&>*&&***-*==$##*o;-#*&$*-%$#$*",
"o&#@+$***$*-=*$$o#*$&*%$***$&*&**$O&$@+$***$*==%&#o#*#**$$***$**",
"#@@@&O.oXXX+OoXXoo oo+oXoooo+OXO@+@@O@#OXoXXX++oXXoXXoo+oooooOOO",
"><>><<;@Xo#$@@*;-*&+o o$#o$$+#*,>:,,>,1,-@Xo#$#@*;-=#+o o$@O$#+@",
"%**$&*-@ $:-::;--;;;==->@$<;,:-$&*$=&#&*=@ %>=>;;--;;;-=;:+*<:,:",
"****=*-$.:=%&&$%%%*%&=*&+$,$=%**$*=**===-$X:*$$&$&*%=$%=&*+*,$*%",
"*&%*=*-*o:$$$**=%*=%$$$*#*<=&*=*$%%$&==-=*o>$&$%==$*=%$$$=@=<*&*",
"*&&**;;=o:**%***&**&$$$*@%,%&&*#$$*$&*=--=o:**%****$*%$#@=+*>*&*",
"*&%*===*o:=%*===*%%&$%&-@#,&*&&&***$**==-%o>*%*-==&$&&$&*=@*:**&",
"=%**-;=%o*$*---=*&&*=**-$&>--=#$*-=%*---**o*$*=;-=*&%*-**-@=,=-*",
"$#$$%$%@XX o@++O@@@%&&*&o$*&&###$@##$$$$%+.ooo@+++@#@*&%**o#=&$$",
"X@++#$#@%$$%@##@oXOO$#@@*&+OO@@O.XX@++$$#@$#$$###@XX+O#$@@*&+oO+",
"=:;>>:::;-::,:::@*>,,>>>-=::,:,1$.-:;:,;>;;;;>>>-;+->,>>>>--::,:",
">@$%&$$$$%&&*%$#X:&%&=*%$&&*=*&=@o:@$%$$$$#$$*%&$#X:&&%*=$$&&*=*",
"%-%=&&$%*&*===&& ==$&=&&$$&&-===$.*-%=*$$%*%*=*-*$ -*&**&&#&$*-=",
"O:%*%%#$%**===&# %-@$%$$$$&&==**%o+:%**$#&%***=-&# *-#$&$&$#&&=="
};
