/* XPM */
static char *result[] = {
/* columns rows colors chars-per-pixel */
"64 64 37 1 ",
"  c #131719",
". c #161B1C",
"X c #181D1F",
"o c #1A1E21",
"O c #1D2225",
"+ c #1F2528",
"@ c #1F282B",
"# c #202527",
"$ c #21262A",
"% c #242A2D",
"& c #262D31",
"* c #282E32",
"= c #273133",
"- c #2B3235",
"; c #2E3539",
": c #2F383B",
"> c #30373B",
", c #323A3D",
"< c #353D41",
"1 c #383F44",
"2 c #364144",
"3 c #394346",
"4 c #3C4649",
"5 c #3C494B",
"6 c #40474D",
"7 c #414A4E",
"8 c #444D51",
"9 c #465155",
"0 c #495256",
"q c #4C555A",
"w c #4F595E",
"e c #505A5F",
"r c #525C62",
"t c #566066",
"y c #586267",
"u c #5A646A",
"i c #5F6A70",
/* pixels */
"<<<33613111,111,<>>><<<<$**--=--===&=&=-;*;,61111344435;53333322",
"<,<145131331,111<<<>>>1>O*---==-====&&*-**%-8111<133445:3333333<",
",<1>>7333131,,,6<<<<>>1-O;**========&*****+*9<<<<<22333;313333<<",
"1<1>*534431166,,<<<<>>1*O-*-====-====&**&-$*9<>><<<2311*<1<1131<",
"111>%3433111,,11<<<-<<1=O1%&&&&&=&&=&=*=*-$&8<::;,<<<,<*,<<1,,31",
"1,,>#633361,11,,<*&;<<1-O1+$@@@@@&@&@&%=*;*#12::;:>><><$*,,,113,",
"1166#6733,,>-**#&;*<<<0<o1<%&@@@@@&%&$*-;;*O;-==;,<;><4#%1,,,,1,",
">;;1o,%###ooXoo#o+oo%*-=o*%$+o++O@$$@@@$$Ooo@oOOO$&@#+#o#*$%%O**",
",:,:>;%**>,,,>>.=<<<<=&<-;<;-**<:=o%=&=%#%&%====$$$$%+OOXOooo>>1",
"9999qwqq0000qyq>0t45555554488000wrO2ieq99qqweewerrw85,-=**--1r08",
"3533332,>>>>>qe6q5<<12534454441470$,e525553322:2<<<12::&%**;36,3",
"5355522,,,>,,,8655<244554555558889-,52555553222:<<,<2222;%%*>334",
"355532<,,,,,,<8614<<<2444555458898-3745525525222<<<<22222,:%*,34",
"555211,,>>,<,,61<<<34<4444544808,-$343552225222222<<<2222<3;%>33",
"2522,,,,,>,,,,6><<==24<16545580=%<->33335252522222<2222233<-%,33",
"222:>,,>,,,,<1,*==<=<<114444501%,3*%6435222522522<2<<222223;#,<3",
"522,,:,2<%%*<<%+<1<<-<<<<44559&-14;$48544422444421<4222<223,$341",
"@=::222:%$++$o%o<1<*$%oo@@@=<<+<<1o&*&;;;<;><:;--;-;<2<,;&$OO**$",
"@%==#XX.ooo+oo+%-**%oo%$======<<;&+&**%$@ o@OOooo++ooOO.+$$$$%$&",
"59qeyw0q0<8rq01188661<reqqq5585qewrrrre0r:-5<222<22+:<:.<i936776",
">,,14677q1w01<<1<1<<<;0022:<<<<1<-<<11<19<&2;*&&&-%-2:2=5w3332,>",
">>,,,,>>1<<<%%<<<11<;-862:<2<<1<-;-<;<<<3,;;$*&&=&-<:;:=7944331,",
">>,,,1,,1<+181<<1111-*6622<<<<<%----;;><3<>;%*%*-&<<:-:-484434<>",
">>,,1,,,<&<e91<11111-&61<<=<=@=---=<-;<<<;;-%&*-=@<;--:-,44343,>",
">>>,<<<>1%>04<<1444<&%1<<<-=-=---<--<-<<,>***%*=%-::;-;*;2434<,>",
">>,,,,><1%*61<<111<<&$<<*===*==-<-;;-<<<>%%-*%-%=,---;-*%,333<,>",
">>,,,<1>6$$6<;11414<&$;<<&==*=;;*;<<<<<<>##-%**$:--=::$#$<<<1,,,",
",<,,>,,18%$66111555&&+<1*<=<;;<<<1<1541<-%#,-*$*,-:,3#O#%43<>>>>",
"*******%>$O6<#$$=<&+=@<*%*&%&&&&&&&&@&=<%o #ooXo@@@=#XO XOoO#OO#",
"->**..$**%*>**%%@+%@=&&&+ooo%$%&&----<&-,>>,,,>*@+%%*>->;;>OO%**",
"600e-*6,><<11166444<1111<+ryreeeeqwqq00wweteeeqt88r9080qqqq1%166",
">,>66-6********-==<<=&%*<&e544<<<<<<<11<,,,,,,,0>7q2,>>,,,11;>>>",
"1,,22,,==:-::-------%%%%%-q3331,<<<<<<<<<,<,<<18-97>1,,,,1111>><",
",,,,,,,=:=:-=--=-==&%%%$#-5,<,<1<<;;<;;;,,,,,,,5-77,,,>,,,<,,<,>",
",,,,,,:-:=:======&&%=%%%$O*-;,>,<;:;;<<<,,:::,>3-15>>>,1,,,,,,,,",
"1,,,-*:-=:---=&=&&=%%%%%$+-%%%$*<;<;;;<;:;;:::;,%-1,>,,,,1,,,,,1",
"1,1,:#--:=====&&&&%&%%%$$O38463$*>,><;<;:-:::;-;%%,>>,,,1,,>,<<<",
"1113:#=-=:====&&&$$%&%%%*X,43688>*,>-;;;;:-:;;;-##>>>>,,>,>,<1,1",
"3437:X@---:=---=&%%%%%$%*.;<<1117;%,,;::>:;;---,##>>,,,,1,,<<111",
"*->>=X%=%=%@#O#$$@$%$$$&&.$***;;--o$--***$$#+#@-*#--*****%***>>*",
"%%#######O###Oo .O#%%&&#oo#%%*%%$%%##X  XoooOO+$####%@=%$$%%*%%*",
"00qeeyyrtttrqq9.7uteee06866684<00qeee3#2,---=::,25##uwwq00000qq0",
"113355555555550&0y43222665888*707734ee-42&--=&=@%2%-e22211113311",
"112122332325359,98-,23265688>1w357338e-<,&--=&&&#&=:9:221666443,",
"222222112222558<07;,13266883-w9977332w,:,=====@=###:7:2222554233",
"23222,,,,222527,83->><<45661-r55555225::-======&%##&2-2222223322",
"22222,1,2222337-73-;,,,24663&w54533222=-==&=%&@@@##%2---55332222",
"2232,;3,,,23335*33;:,,,<1154&154555222@%&%%%%%%@@###:--%-533322<",
"2222,32,1,12333%<<-<*<<<<<11%<44442<<-O==&@&%@$$##%O:-=%#%&,5222",
"222,2221333232-#<11<<<<1<1<<*<11<<,;:2O<;=&@%%%$%&&o---=&%@#2222",
":,-:>,,2,,113-##%6<&%*****&--<-*%&&&=<o21&&@%%$#O@%o%===%%%#=2;;",
"#####X#XXXX##XX.++o.ooooooooooooOOOOoO.OoooooO#XXoXXOoOOOO%##%%#",
"3,235qw3.5971,-%%%<<<<8111186$1rwrq8545<<444453X7q97377777757763",
"222259ur-yy74446<<<<16018860r<6u954325554455777-e9,5555553,,::,2",
"22253209>w922111<<<<<1<<1<<<0*1q-<22255553543,,-q,:,2522222>,:,2",
",2225399-w9452,><<<<<<<<1<<<0<0r>1122255555433,#9,:,222222,,,,:,",
"2,235377-0953,,,;;<<--<<<<<<8>6q;<111444453432;%2<:<;<<1,,<,<,>,",
",,,,3353*5732:,,<11---*<<<116;16-<<114544353<,-$<;:;;;;>,<,,,>,,",
",,,<355,#55,2:,2<;&-<-<*<<111><<-<<124444431,<-O&-;--;;;>>>:>>,<",
",<232564#57,::,:$$&**-<<<<114<;<-<;<224231<<,,-X&=&---->>;:::,,,",
",<334447X36;::2#%-*-*<<1<11<<;%<*<<<44441<<<<<*o&<;;;---;:>,,;;>",
"##OO#XXXX*#####.$$%$$%OOoooooo oo++%@@@@*&%#o+o.o%%+o##$##%&$$##",
"1,,%.11211111222<11<<<1;$-&*&*&&-*=**&=-*-$o<11111<4613#*3212>,>",
"1141,y866644333366666661<1<-=<-<*<==<--<>,><r8855888778%0e677663"
};
