/* XPM */
static char *result[] = {
/* columns rows colors chars-per-pixel */
"64 64 88 1 ",
"  c #12161B",
". c #161A1E",
"X c #191D1E",
"o c #171C20",
"O c #1A1E23",
"+ c #1D2225",
"@ c #1F2428",
"# c #212427",
"$ c #22262A",
"% c #252A2D",
"& c #292B2E",
"* c #27302F",
"= c #262C31",
"- c #2A2E32",
"; c #302F35",
": c #2D3135",
"> c #2E3338",
", c #313336",
"< c #32363A",
"1 c #38373D",
"2 c #353A3D",
"3 c #393C3E",
"4 c #363C41",
"5 c #3A3E42",
"6 c #403F44",
"7 c #3D4245",
"8 c #3F4449",
"9 c #3F494A",
"0 c #414346",
"q c #484246",
"w c #494846",
"e c #43464A",
"r c #49464B",
"t c #45494D",
"y c #4A4B4E",
"u c #504C4E",
"i c #4D514E",
"p c #474B50",
"a c #4B4E52",
"s c #504F54",
"d c #4D5155",
"f c #4F5459",
"g c #515356",
"h c #585756",
"j c #545955",
"k c #595A55",
"l c #53555A",
"z c #58575C",
"x c #55595D",
"c c #595B5E",
"v c #5B615F",
"b c #61625E",
"n c #575C61",
"m c #5B5E62",
"M c #605F65",
"N c #5D6265",
"B c #5E6368",
"V c #616366",
"C c #696864",
"Z c #62666A",
"A c #68666C",
"S c #65696D",
"D c #696B6E",
"F c #676C71",
"G c #6B6D72",
"H c #677172",
"J c #6D7175",
"K c #6F7478",
"L c #717376",
"P c #72757A",
"I c #75797D",
"U c #797C7E",
"Y c #777C80",
"T c #7A7E82",
"R c #7E8285",
"E c #7F8488",
"W c #818486",
"Q c #83868A",
"! c #88868B",
"~ c #868A8D",
"^ c #8A8B8F",
"/ c #878C90",
"( c #8A8E91",
") c #8D9194",
"_ c #909497",
"` c #919599",
"' c #93989B",
"] c #989C9D",
/* pixels */
"d]R'~H,NTI)L97Gd9H_E99R))~Q^!UAAnz<AQQRKUN#jE2RRRj88R~UR~QRyx)N:",
"7JNbNSitvtNx3tUf2nHB**vZcNMcnsu66n8dxZScBN>IPxyd7N$7IZBISZHi8d35",
"0jjtiNN7:t0<528e>9dp**9dalcsrrr61g687tdydy:ZlZ:737N:dy37dt79NGd+",
"0idcddxi<d73m8-7>9994*9dahssrssr5r5rippej8:tdNtgjZdy:7d04t3iDIZ*",
"3devipedt--lmng47t9p2*7jarrrprryedyyjddyce:eNgdlNBNyJ38338,8yee:",
"3veptd8tg8-tape49tpp:$8dsrqshyryyxxeddfadt+ijddddxKBvK7$gNddjxd=",
"8NjytiitcIp5e4-p98yp::ydtrtaayrredx9ipdady%dxnxmxnNddx`p2jxppjy@",
"<wjyi7xddGr<>eera9ad::y70sgaryp683e9Natat528mxddxyxlddjNlttpxj8:",
"e:ekdyjy7dd<5feeeded4%ydrdy0pr0py798jdddd8:7ljnxjNNydyttmN-yydv$",
"ki33dnd7piddy<5frldj3@edtdgy05rr<<7txdddde&txtxfddxdjdddyS88ydl<",
"7x7*tj0y800Na$eNtlah7:tddxp0eeepddjdy7pdj73iddmjnjxdmdddjN2-dg8$",
"Xe3#*:&37<:3=O:-54,3<:72<e2:e<$r0:+X$&*$- 7pdNxap4238<7,445%:%%:",
"<53,,,:*$:dr-<<<1,,1<:<::*&:-$-6<tjnlxNSx:&<$X++#o++#X<2:+2$$2y5",
")WUWRWQRGtt8pZGQIIRWIJJGd<v^TPM$<NUUmxARRN#gd$NS2elxdtR~tv)K7j^)",
"djjjgjcNR8$p~~n4ttggyyddIdedzGM#dd0t7t77Nd2SKejx<edje8TRdxZZ8dHG",
"tjtwydtag7$eMprrhyywyvAAVIc,6M6&tdyd8dyyd2ydNN0d8tet3,Zpjd7Ni7tc",
"ddartaspc6$AqspzujwwbLbkusA<q;4#3y0zyrya3cc5yz6537ij<;gjgcptx7jd",
"gjrlhqyaV6&yyrshw,ubkukuhysyA6u;O1h3rzr5yhs1qn663<7y42lVNAlydwix",
"slgrragst<#egzgswkbkhwwuycayg5s4&q4zsm5sczg56gsfZd8y4>paydjxdy49",
"trVyaBqrgy%xgm60bLbwyiwuyh6tgsa$6M$Alq6mgrsr155sNd88;4afjdfa7d0x",
"Bt9flr7dNf%xtd7lHiijwyht88aSZf4><Ze<a>nag8gd5555td5;@>sffafs7d8f",
"jx>id4mli<%tp9tjiijvvbvj4jLSt4=>,ln-4pffmralpp548jp;@;parplnyy4:",
":dpflfNel7:t83773NvivBjddBl2>47+4fss4BpBm8tppf44<p4;=4flnllfpep4",
"jpN77lyZvp@t&yadviiieee7td>:74f74fpf9fBfFnfffnep-4=@%>5pp6pap5p=",
"d9*+$:-&7&%%#::&**+*2>:@@*@*::*%@====4-=4e>44>=>4@OO$==+-=@$====",
"7NHZZSZZ7+79<xxxiji9:#7747*97+7fnnnnnmBnp=@nSBAFmZFMmGJB4fnfp65=",
"3J/TLIUITdJKgUJIIYEIp8SPKIfKB>xPJYKKYYYYQe1TEYYPYAJYYYLJ4FTYYYY4",
"&dmptdppBeyd4cpcf9vN4:fldx9ff2tg45ep6pp5N1=cnnfpf54ep67:6Am64pp;",
":rggzggscc13yhald9gm5<pe9paagaetsaasssaft0;azgagsppe9yy2FZse6p64",
"%3ttaaszjG6,grpgfdnm5;rpldngpt<pVzgssaashq&amaegp5ple39xmntfnf64",
";ysrrszMaVz<sralfffl5-qs9rpparrczgshnzfaz3&gchahe5pnw<0ZJSspp665",
"&thrtzgaZLWysqdgdjalp25ppnaagggprrsMGAMsc3,lrrh0-am6,tg00nnlfsp4",
"*dl9iddNSvBl2d8dlaffp;55pppfp61pdtpxlnBNf::e87pdyyv77d2d9a9nnpp4",
"@9ddxfaa99fa>7ednsfs6=5rpp1p1=Yfddddfxnxp88pe88:7yd8ti8etdtpxff4",
"9ddppfdaddNx72di6efzf4pfpp8p;1Yffnnfddt45t47plNy9i7397e78995ffn4",
"<7pdiljddddjt2Zdsannf;8p66f8=8fptdddfdpp9p>287p87w37e9e77tf7ffn5",
"78te77ttdddxd<Zgnpfar;pp1pp1;8847772422t45:79278*&7pfi8766s59454",
"d7:$++$&+*&3, ::%$===@>;>p==@ =@+>222:=<4*=@$%%:*+<744:34=4;44=4",
"<:$*ee<:-*+3pttgdglgppp;sf8p4=e5=NPKIPFKYBB5-t4@8::4:%8d644544@4",
"JNyx~)RUKN&dIWGJPPPGYYYf6;fM66pf@nBdpxfpdpB58RG9dy3l92GLTn6YAY45",
"LJVychlnVt;0Mcgsyjy8ettj6B44zM;8:pp9t98tp4t5*pp4445644fzf6s66zss",
"ccg6cyscmr&6zggadjidpt23fYB=55p4%9fptt9a8f2xadp@nYY64@f6ssf66f66",
"dAA7caslcq&6lsagddtd8ddjffB64pf4=tp8tpt8p8f(F78%4fM44@zps6s66654",
"3yy,Vzlcz0;0zaya00ei:8fB644n46f4.498fnxx=8B8f44<4564$=fs6af6s666",
"z6-,Gmasg0-0cayadjNSttygp5f54-e5:BYHnt7tI2afx7BH584p;;56z6z66s6u",
"mZz5hggqs5-0zaaadydxd83,f556p-44+dKIKnplNH788:7fB444O=6Ms6suss6s",
"1cN0;acag6&0zgaajyptxyte64@655@>=7fBHn88dx4f>%2<4>nYM466s6s66uuu",
"gtrl1etal0&5clfjfdj9N79e55p==44@=48dnp5e4fd@2FFx4@Bf6;szz6s6uu6u",
"zjtp0*7Axt#>FddBfxxxBn9f79FZ5:n4%7xp748p8f4%5ppnY444=4nffrrffprf",
"33%%%+%:%::>7<7>48848879999f8%4::98>::24ft==4>@544=4;1>>4;45558f",
"*wwetjNcv:%e:$<:;%o@==+@===4;<5%o87>>:2=>o>fOO==4@@4$@14@>51;==O",
"tU~RUR~WTZjjrFRKTKAJf>fEEYYY5nF%2YEYRKRITS:9Z~FYYTYY(YfMnYEYYEY4",
",vVccclrrgssenMZGGT'G4rKBNFG4ZTn@fNxfdBF/ZO4F/FSnnMMYYn=MYYMAYf;",
"#wgzkyatsprzmf5lnfrn6-rgfxss5pnJ88pttpfdm>5Z58fppf55MspMYMzMMz64",
":jcbhyshays6MGms6zsn5=gnnfsal5rSB4tppft9fp>8fp4ff6sAz6rz66rzzzs6",
",wwyzzzag1yynsrss65n6=all8nls5ppF*tp8ftffp==BB64fzs6sMzrsr65zYz;",
",0iy0zmrszgsssaaydf0,$snspglae8ep#<Nfx7m6B5=55f4rr65zMp6rr6rsYr1",
";0uggrrcugzgzaasdflp5;alpgzr6e55xF>7d8p7ff=A4f5615rrsMssrspsszr6",
"&qticy3csgslns6sptfpr:parpp5<444m`d>ftn8644fn-p44;8rpsps8psrssp6",
";hzugw22zspgnzszxfffa<pgprepe4479FB>d98p444544p4r=1spr6prps4sfs;",
"%wjy7ii7Nfefmnffnfnn9=99ppplf97<27F3pd884B44;np44;4pppp8p8p6ppp4",
"w<<<4id3Zmasmmznffxff<fffpe4797>88B8pfx:5n4@5584;6f4>8r564686=;r",
"Bi:*<3=o::=$-===**>>:@4497:%*44:7<8:449@45@=>44>=5p=@4>=;==4>@;8",
"<w3#:*@:-2<---=;>>>>>%7>=%=47>*@:+>@==$==4@4O=4;@$$@=@O=@>==@446"
};
