/* XPM */
static char *result[] = {
/* columns rows colors chars-per-pixel */
"64 64 80 1 ",
"  c #161514",
". c #191615",
"X c #181916",
"o c #171718",
"O c #191718",
"+ c #1C1B1C",
"@ c #211D1D",
"# c #24211F",
"$ c #1F1F21",
"% c #201F21",
"& c #1E2022",
"* c #232224",
"= c #282525",
"- c #252529",
"; c #28262A",
": c #27282C",
"> c #2A2A2D",
", c #2D2D32",
"< c #312F34",
"1 c #302E38",
"2 c #2F3135",
"3 c #323236",
"4 c #34343B",
"5 c #39363E",
"6 c #36393E",
"7 c #393A3E",
"8 c #363641",
"9 c #393741",
"0 c #363941",
"q c #3B3C44",
"w c #3E3D49",
"e c #3F3E51",
"r c #413E47",
"t c #413F4A",
"y c #403F51",
"u c #3D4146",
"i c #3E4149",
"p c #404147",
"a c #42434D",
"s c #48454F",
"d c #43484E",
"f c #48494D",
"g c #454651",
"h c #494653",
"j c #464953",
"k c #4A4B55",
"l c #454459",
"z c #494759",
"x c #474E59",
"c c #4C4D59",
"v c #504C57",
"b c #514E5B",
"n c #4B5157",
"m c #4D525B",
"M c #51535D",
"N c #53585F",
"B c #4E4D61",
"V c #4F5560",
"C c #535662",
"Z c #595662",
"A c #555A64",
"S c #595C66",
"D c #555668",
"F c #575C68",
"G c #5A5D6A",
"H c #5E5C70",
"J c #5C626C",
"K c #5D6570",
"L c #61646E",
"P c #62686D",
"I c #606572",
"U c #646A74",
"Y c #646579",
"T c #656D79",
"R c #686B79",
"E c #6C707C",
"W c #6C6F83",
"Q c #6D7481",
"! c #757A89",
"~ c #7B808E",
/* pixels */
"+>54773<3337u,.@<5r5<<155999= >4,60736066qiiu6*o=12>,,::232uuu6X",
":akkkMMnvMZLLJ3:yvbvhbvvbbZLq+,CjkccjkmmMCJJJQi&2xmggjjgkgkVJKJ2",
":dkkkjgkkkMJGG7<vvvvvbvvbbbb8$,iggaagjccmNASAIm*6xxgiiggiixnnnN7",
"=fkvjkjkkkkNNA3=hyvvvhvbbbvZa$,qggwagjkcczbAScc*>ixjjjgggggxknNu",
"-akkkkckkMMcMA3*hbhzhvvvzbvbt%qggkggkckzjjcVVVi&4ixkjjljjiigfjn3",
">jkkkkkkkkgggM6*hvkkvvsvhhkbt%akgzdiaaagkjigzxu&0ixijjgjxklgjjf>",
"2gkaakkkvkdggd,&tvkhthvvBbhv9$wkkggawaigmMguai4&0xixxixjxjjjdjq,",
"#>>**>,,3>>3<,+o%>>>;;><<11,*$qMMkggajijgkmkjk4&&:&81>20413343>*",
".>74>>-:>:.@#37<455;#>444323&&aMmkkkcjjggkjmzki+$:,,>*.@:,2>2>:X",
"-kkNAgignJ4=pkbbbbbq=ucMnknNu&amkbkkjjjggggcmma&9clzZZ=3jmmmmJU6",
",jdkAjjVnMp4Mhhzhksv,pkjxjdj4&0MkkjjgqqadgxcACa&8yghkZ,3ccmmMNJp",
">jkfjkCJNN4<vhkkvvhv3pbkknxN6+ukkkMnmgiitizMCMk*1shzhs>2kkggnNN7",
",ggjsMSFZM<;vbvzvvvf20mmmxjc7&ujkknkjjjaaqicmmd*9bhhhv;3mkjjfnm3",
",gigdNACMm5=<<<5775>#*363601&+:2:62:&-:---:26q6&195977*3xkjckkf,",
"3aiahMmmnM7.>,>==<>;,36622,>#&&*=;:64&X*-->--**&*-><2*.,akgjksd,",
",jaadmmmjk4%pkckmmffnMNNmgdjjdgnmmAATVO6gjknMcj0imSLUP#-0ckfkdq,",
"$iCMkkkcdh4%akkkjkkkhdaagijjmmNNNNAmVA-0jggjjjmccmSSSP=>aakdgkN3",
"&qkkdhkkdM4%dsjgjkdagkjjjjjjkknmxmVVmk-0ggggkkkkmAZCSn@4jagggjN7",
"+1cMkkkcdj6-skkaadsdjjjkkjkjggggjgxmmd:iggjgjkcmmkkkbf*2gjgadkg7",
"$qmGCcmCpa4>dkkadhkjkjjkkkgakgjiiuikki:ijgkhccMmiiafg6*,gjgaddxu",
">kMCCMvnig3>ijfdghdjggjjkkxjgsjkiixjj7:ijjjxkmmqigjfa6*2kzsdagm3",
",kMCCMkkgk3*afjkkgdawiiggggggddkixjiAg*ugjjxjmqamcjjjq*4jtaaggj2",
">qaasdaifg>*30uaaaaaaagaagkgidaqgxjiki&qigjxjjammxkjMi-103wigai,",
"+++++*@+=*+OO.@=@***&$&***=*+**@&--:-+$0iggjjgkmmmkgmd=*-%&-:-=+",
".>6au234qqafnf3>477# ==;=-=*>>351,>,>.+0ijiixkjxmjfkkV;=3899>4<@",
"%qkkmjdkmcnmAULkmAJ6+wtggaakkMSDDGYRW>o6jiixggjxkjkdjM><cbCHDGYq",
"*qapgiqqqqaaafNJNAAu+rssttakhhgeigmcA4O6giiaidgjixkjkk-<zkhkbCB9",
"*qpuqwwq00uifjnACFKi+qsrrqthvzgggzccD3oqxigidiigigjjxk>,hkvhvzz1",
"+3iaiqq00080qqgmASF0+rsrasrsksytshvkZ3.:jijdgaidggjjgk>>hhhshtj9",
"-38qiiqq0080q0qikNA2.qtatrhvshtstsvkZ4.<kiixjaiagjdidd;,hsshhyy9",
":a0qwagq08080qquakc-O6trtsbvcczhsskkM,.0jdjgjgiaaddaga@5hyhhgsy4",
":ai6qajjxjiqqququfk:+3ssrssMMbkhtsssM3+uxdjjkiijjdddkt%rhhkhzzhr",
"-aiqqagakgjaiqqiadg:+4tttsvMvr9sshsth<@akgjjxjxjnnnxk7*ahhshhlct",
"-ajaagaaaaaitauratk,.9tqsttt95rhvhhat>&qjgdidxixxfnnj6*whdtthhka",
"-ajjkkgaaaqaaaapaqb1@9wwtsr999rtthhh8:o4gdigixiikjfxd0>3khhygzs5",
"&0uiuaiq00,,36633<,%%9trrtt99rrtthhv8&+&2362,:24u06366=>rrr999<;",
".O+&%@++$$$%&*-**#*.%9rwtrrrqqtttsvbC>o+&+XooXXX+**==**=*=**%*%.",
"$6weys%%3qwgjianNAK7$qtwtst9qtytaskcC4.,0iuuxNn7+:unJAiiiudxmAm=",
"-hjjkHt3kdgduaajnxJd+9trthyttttstshcM4O0djxmmxAm#-djmJAAJAKUJ!~6",
"%yhhbDz3kfhhjgjjnxm0@rtrthbhttttrtskz,+ugjjxxkmg+*djaamCSJKJJJJu",
"%yyzbHr<gjkaaaaakmu2*qaqryvhhtstrtssc3@wkggiajku*&4akzcNAJKJJJJu",
"%wtvhD9>aidarraaauf>*q969tthytyhrtshk5+qaaigdaxk--iiajkMMCCFJFJ7",
"-tqyyB9>fiaq5qqp07a2%wq9999qr9rhttsgz3+qjiggsgjM2>ggijcNNmzmNJM,",
"%y9yhy1<iqiaapqqqqa3$9trqrwqr999r9wtg,&qjiiidddf>>gggjMMcjkVVAf>",
"%t5tyy<1jiuuaqquuif2o->14888868314238,+,0i030ipq#:kmmknkkxjmmmi2",
"=hshyy<%:---;-==::*+ OOo$&-++#@+@=*=*. .o+.oX.@@.>mNmmmkxjjgkgn2",
";yhhzy1%6uq0aNCmuaqiqqtgcDKc==7ugmdu7663260647u=.2kMmmCmkgjjjik6",
"%tyvbzr>gkgaaikkkjccVCFGKFVG,,kNkCQEAMcmmVCACCUn.,dfmmmmzjjgggA3",
">tybZB9;ttiiqqiwtsshkcCCFFVj*6CCmjMCgajmVCAGGAVx+2aaicmmcxkgwjx3",
"%ttbby,%glgaaaaatgghjjmAGFFiOiMMmmjgkgxxVGKJGCVi+4aaqaxmcxjgamc,",
"=9thbz,;cxxjiuigaagagjjzmmFCO3ccckjjigajxAJGAmm4+3ii0fajjhdgaGK,",
"<t9yvy,;mmxjxikcdaasaw8qjcmU-*qaaaiuuuwajcVmmjiq@2aijjkjjgghgkT3",
">yttty1%kVmmxxxmcjddaa8qgkjm2&6aaawwarrpajiqiqqi+>aiagxckxjjjgA0",
">tttth<@immkkjxiiiqq9q9qigim>*agaiaaarrawq0qaxGm+:aaiigajjjkjam0",
";ytyty1@,ujjaiuijiuwwjgqwigj*>qtaaaspaquaqakmkFC+:aaaaj10gikjik2",
"@<55rr;@:400q00004222144481:.>dstaataraaakmmmxxV=*-:243--:,4160*",
"o&:,::*$&&+o&&&&$%-*%%%%$O+. :aaaaiaqwigkckcmxxm=@@@%%%%**%%%$Oo",
"*ixxFAcgiuinATF&8hllyyhhyhyw.=qaaiq0qqiggdgdgjjj>%4yzvybDCzyBHgO",
"&iigiaaaimVVAJN+9yttstttq99s>@0aatqqqiagaawaiaai%4svhytvgkzvcbc>",
"-ugjgisdiVmJAVx&tyhhtghht9qh<O3saddraiagdrqiiwiu%1ssvtvyhzvbBhzy",
"-qggjdahgdkNmd0+9yytytthhhyz<o,ashdsiaaaaqqpqwsq@<thvrrvhvvhkvht",
"&qdiagddjgggjnu+8ythssyhyggh=.-qfkkkgaaiaaaaaat9.%tyvttttyhhhtt1",
"&4q06qauiiaaad3+189rrrr9q851OO+-,,7aaaiwi008qiy9%%rtyyssyttttyh,",
"+&++O****&&*&*+OOOO.@.+++$OO ooooO+++$**$$O+$&%%.%%%%=%%@%==>;;+"
};
