/* XPM */
static char *result[] = {
/* columns rows colors chars-per-pixel */
"64 64 46 1 ",
"  c #272B2C",
". c #2D322E",
"X c #2B2F31",
"o c #2E3233",
"O c #2E3138",
"+ c #323535",
"@ c #353836",
"# c #393B37",
"$ c #333639",
"% c #363A3A",
"& c #3A3D3C",
"* c #3E413E",
"= c #41433E",
"- c #3B3E41",
"; c #3E4242",
": c #434544",
"> c #464946",
", c #494B46",
"< c #444749",
"1 c #464A49",
"2 c #4A4D4B",
"3 c #4D514D",
"4 c #51544E",
"5 c #54594F",
"6 c #4C4F51",
"7 c #4E5251",
"8 c #525552",
"9 c #555954",
"0 c #595C56",
"q c #535758",
"w c #565A59",
"e c #5A5E5B",
"r c #615F5B",
"t c #5A6057",
"y c #5D615C",
"u c #61635E",
"i c #63695F",
"p c #5E6261",
"a c #636562",
"s c #686764",
"d c #666963",
"f c #696B65",
"g c #666A69",
"h c #6B6C69",
"j c #6C716C",
"k c #71736E",
/* pixels */
"::3,,+++#,44,=4=,,=#,,:,2,,:24<<: +<6823,223133;*373222:2:::666+",
":=,:##,,=45,,44==,,#2,2,<66622666#&64487998877571wqq880rr8688qr8",
",,=*=4444444454=,,,#22222<,<2666q<-2333324443777:qq9888r866868r6",
",==,,44,444555554,,#22<66,,666qqr<-<373346643357:9q88888648r4886",
".=544,444455555444:#6226662228qqp;;;2q132,662246*90888666qeq8846",
"#,,4,4454504555444=#6666662228qqp;;72112,,,62644&q944qr68qrr8682",
"+,433555855rr55rr4<@68qq66666688w;;;;63;,,,22424:92668868rrq4886",
"*:43,554554444545r:+2rqq86466886q;;;tww96,,,2268<q6664888qr88462",
"=,=44455454555r40r:#=qqrw8668486q;;;t79q7753,222-886688868q8q86<",
":,,,554458444,448s<+&:<rww888662q;7;777973332640<88888888q88q68<",
":24=44r4545444r5rr:+=<:688886466t;;;373375374228:668888qqqq88482",
"+:,#:4,88444588r<==#:<<6qw086888t;;7113339776288&:6r880qrreq8682",
"-2,<,=#,44445,:##46=:,,6qr886868w;:,,1333379,324&:668qqqrrq8r88<",
":2,,:==44,=6:+.+=22#<62688667668p;:2,,32372,:2,4#-26886qprq686r6",
":,,,,,,4,,:,&X+&<88&r6264666862ey*<1,222>>2,,342&,<288qpqepqqqr<",
"=,,244,,,,4<2<+:48<&;&882666qq2>q;*1112,13322,q4-622<6qrppsp6pp<",
"+2444,,,,::#,=+#==+<6$rr;;;;;;@o82+=:=::,,::##:##6<<=:,2,<12112$",
"+=#===#=###====#++&#&=&-********=#84,::::::,<:,=#raruu00eeyypdg;",
",4444r40,4444444==4r86623999t599r<4,:::,::::::::*dsa00uu0tydgyy5",
"=04444444444444r&:r8rr8r7ttt59998,2,,,<,:,:::::,:0eet5u090uaitt3",
"=4,,444444444444==594r44q5999559r:,:,,:<,:,:::,,;990tur9ttyyyyi5",
"=44r44r44r444,44=&808868wwttt9998=,,::<,,:,,:,22:9990t555yyiyyt5",
"=4444444444444,4&+:98488tttttt998#=:::<622,::,<2:4900tt09tydpt33",
"=44444r44r4444r8=+>0044rpttt9wt9r#+#,,,646:,<<<2:9000uu00ttdytt1",
"=44444rr444r44,4=+899978tyyyt9t9,X+#:2:<2:<<2<2<=5500u000uuuuii:",
"=44,,4r4,44,4,,,=.259t559tytyy9t2.X#=:=::2642::==r0000tu000uti0#",
":4,,44444444242<:+*959t99wtw99994+#=<<:<22,6<::@*r050000t0uttt93",
":4,,,4644,444r8r=+#4t9t559ttt9tt4#6,646662<,:26=*0050u0uut00t5py",
"44,444464464,rsr,+;>9tt099t99tt94&664664,2<<2q8,=0990t0euttt0tuy",
"444444444rrr,4rr2+34>255t9t9999tr:22226662,26862<r5900tuitut50yy",
",44446rrrrrrr,,44.0st,*,9tt9t53yr=2222462,6,>22,>t04990uutt5ttyi",
"4r4r4,rrrr444,4,:*,kfi3*;t999yite&886448624268q8<uuryttut9*tyyif",
"#:<<=#::::=:<:-&&@#::,4q>@3733<;#+<93qq871717111-;11>3>>>>;11111",
":<6<<<$$&28<%++&+:2>,>::;&O%;%$+#*;;;;;:1;%%%%%%;111>>>>>13;11;;",
"rrsr66==<26<:%++<w49449873&<<;-%eee97y9wqt15tqq3;111>>1135153311",
"qrr82:=<<>,2::*%=844444893<<11:&q93477555551t731;1>131>11351>11>",
"6r6<:=:<2<,<<23$:84448rrt9q4,,:%79w5597855q13355;1>>>>1>>13>1111",
"66<,=,:6,2,<2>,%:644490rte0442<%99555999tt531351;1>>5>1>>51>>>>>",
"<66:=<:<<<:<<<,%&,644000u04644>%w379999t3355155%%3>3>1>>3>>1>>>>",
",86==::<<::,::<+:4444900r42443**7797q7tttt55115>%;**>13>135>*>>*",
"22<==::<>::::<<%,8448000094484:*;w737tptppt711t;%1>>%;>>>31>1;;*",
"<<:::::::::::-&+2099009re004442&9t79wpptpt571t5>%55>331>>>>1551;",
",,<:::::&&:::;&$6r04448rr099440,qwtttpttt5q7;1t1;55>>>1%>1>>155>",
"::2:::<:%#:::<;$2iu0949ru04480r27tptptttqq551-77;t1*;>11>5511>5;",
":<=:=<:=*:<:;6;$5gdy040ur444q9y39ttt55tt5333;1;1%1>>1113>>55>11>",
"<<:::::=$**>2q7o3daye94942490ta3qp7qqqtq535;3t1$%;5513555131155;",
":r66<<:#;<;12q;157jafu98,234eua<*ttpttttt51ttq1;%;;15555t1111>;*",
"##:=::=O;%*%%*+73*23742:##=&==;%;;t757q11%.31;%o.%%.%;%;;%*%>>%%",
"=:==<<$$<<-:-&-O&<:<<<<:-&&&;o%-q;;;;;;;;;;$O;;%%o.%;;>>1>51513;",
"6r6666<6rrqeq66O7rw9088rapeeaw;ppppwpppppggp7pw;%.;131553353135%",
"66r666<qqqrreeq-805r44rsusauar6gppptpwwtpppgw7wq1o1151511333513%",
"66r6666668qqwrq-9rrrsssrreease2ppqpwtwqtwppgp;7q1%55155;>315155*",
"6666666qqqqqqqq-0uuiifssuuiusr2apppqqqqwqwwp;tg;$%71115>>>>>515;",
":66rrrqq0epeqqq<ruuusssiussisr,eqppppwwpwpq75gjg1$155315>>>5511>",
"64rrrrrrepppqqq:rrisffuuuiufhr>87qppppwwwwwqtggp--7511555>151511",
"4rrrrrrqqeppqqq:uuhfsissussua8<87qpppppqwtppypgg-%7115115>151113",
"qpppptwwwppawq1;ufhfiirrssu8q2:<7q7q7tp7qwpgppgp%*51>>>3>>>51113",
"qpppppwqqpeeq7;%0uhfsiifss888<-<qwq7q7qwpwppgwt7%;515>535>555113",
"7wpppe7qwwq37;;-8rsfishfs0866<&8twwqw77gpppwtq7;;>15>>3>>>555551",
"7qepq167qqqqewp-5riiirssrusp8,&qppppt7qtwpppqq1;5;51>5>15>>53>35",
"77wqqq7q7qqpppe1yueruuusussuq<#8gaapeqqtpppwtqt11%53131555551515",
"q7qwwqwtq7qpppw;dsuuusreuusr82%2pappp;qptw7q7qt1.%11>1>55515515>",
"w9qewwwtpqwppp61stuuuffysauay<o;7ypgq7wtpt7qqq5%.511>1115351155>",
"&<2377qq7ppewq;-9>239877e82<<O O-;21;;6;;1q7;11.%11151%%;;11151%"
};
