/* XPM */
static char *result[] = {
/* columns rows colors chars-per-pixel */
"64 64 43 1 ",
"  c #130F0E",
". c #14130E",
"X c #19170F",
"o c #17180F",
"O c #150F10",
"+ c #161411",
"@ c #1A1612",
"# c #1D1A14",
"$ c #1E1A18",
"% c #221D17",
"& c #231D1A",
"* c #281E1B",
"= c #1F2017",
"- c #272417",
"; c #2A2317",
": c #25221B",
"> c #2A241C",
", c #2E291E",
"< c #3E2917",
"1 c #32271A",
"2 c #322A1E",
"3 c #3B2B1A",
"4 c #2C2621",
"5 c #2E2A23",
"6 c #2D2C28",
"7 c #332D24",
"8 c #392E20",
"9 c #332F28",
"0 c #363025",
"q c #3A3325",
"w c #353129",
"e c #3B352A",
"r c #3E392C",
"t c #3E3730",
"y c #482E19",
"u c #413625",
"i c #423A2B",
"p c #493E2D",
"a c #423B30",
"s c #4C422D",
"d c #50432D",
"f c #4E4331",
"g c #504230",
/* pixels */
"0w9w0erw779769942277000q8tw998968w9w7ur99997699>7,77000q8t99ww95",
">4>,1qq0ww978w6:7270700q5r97774444,118eww6990w7:727870005r977544",
"wq881;,7697707:*,77777087177ewew8wq81;47786506:*227770007,17uwue",
"8qee,-#o.@@$$$&4*>:*>>--*dseww809wqe2-%XX@@#$%:>*:*>*>->>ssr9998",
"qwew0,-=#+o:5wrw967876684ui7000q0qr07,-=#.o:6eee77974760,ei898we",
"800770,--#%60wew99990ewr74peeqqq000077,-:#%7wwwww6wwwewe75peiw8e",
"877707,,>-4rwwwwwwwwweee84ifpew00272002,,-4tww99ww9wweet84idar98",
"0780,00,5:rtwwwwwwwww077q82eiir002007,055-rtwwwwwwwwww78q72eiiiw",
"88q97,55,47wew975,>>*70quq222q0770q0757,>47wew98544>:20quq2,2qq7",
"w94>>:::>7**44>4,,77,q000205749tw75>>:**>7**>,444,722q0072057,7e",
"tt97744558iiieiuqq2,18ww,00778watt97755678iiirerqq7,27ww270888wt",
"twwwrwww6qeeiueq002,>,0950w8059iew8weww07eewurqqq722>207600006wa",
"6760wew07-00w8872->*$:>::4::4$4e9650wew65>0q00772;;:$:>444=4:$6r",
"6756ww6w4#5-*%$+..@7744:$$++++6e6956ww7w4#7->%#o. X7744:$$++++7e",
"7676796w5o...+o..+,ewrrww54=$$9w677706794o.. .+...,e0rww654=$$4r",
"6760ww795##==::::>76766655555:497667ww994##==::>:>77560655544449",
"7766>*>1;;>:5,>4549ww99767666>4996774*,;;>->,5>5440w989996766447",
"44**723y<1;332,-%$@*68www97775*744**733y<1;2315-&$@:79w9999774:6",
"*47*ui7<-,,008qre7% O%:::::-4&$%*45*eu23;,,087qie7&O+%:::>::4*&&",
"qeq>pw71-,0rqq0qq7,%OO+@###o$*47eeq;pe72-,0iqq0wq7,$  +@@$@@&&45",
"777>uw85,00iq0w0005*@X%--,>22qq7788>u705720rq000002*XX*----,,380",
"237*8806770006w00q0*$%-,2225,277727*0085700q006w0q0*#%-,8225,777",
"072:3e0070rww0000q7%,-;2,2252q88727*7q0q70r0w6w00q7%--,,20551q27",
"qq7&>2770re000q5771,>-22,q0510880q2*:377qre0000,772,>-1220072q87",
";2;*$o.o@##%==-%-2,4&&>>:>**&1>*;1;*#o.Xoo#==-:-:,14%***---**;1>",
"13,75o.ooooooo..##>4703314,>&*>>3855>+ooo=oo...o#&:59883,,54%*>;",
"87790#:$=:%-===::450rew>>6674ptt07796=%==-====o::,5wee9,,6064pii",
"6799w5:455>,5==:577wwww707664e996799q5>4,65,,:=>56wwww9906544e99",
"6679999969w05=-555466999w766ue997679www669995->>464699999965e997",
">>469ee996507q65667669746544**4**4460ww07777706657667646544444*4",
"$%%&49iuq7,5rr,4:*&%&**>>5854**&$$$&48req5,0rq444**%&***449544*&",
"444499pw75,w0re-,,5789qe,we9996664449wf005400rw4>,,798uu4ue94966",
"0w005rr060007994222770qe8a979w778www7ei960976w9>7277000q0i99ww86",
">4>,10eqw697096:277000007e97844544>11qw9w6990w9:277700007e997445",
"wwq81-127765864&202070074177ewww8wq32;17787507:&222075w82,18eewe",
"8qqr2-#o@@@$$&&4::**:->4>gfrw8w89wee1;#@+@@$$#:4:**>*>>>>sfew998",
"wqeq25-=#+.:6eew867765784ui700qe0qqq0,-#@+o-6eee77994779>qp788we",
"0007505--#%59wew609w0rwe74pee0wqq00007,--#%6wwww97ww9ewr7,prrwqq",
"7787055,,-,e9w9ew9w90eee0,ifpe000702077,,-,tww9www9wweee0,idae98",
"078002055:irt999wwewww77q82eiir00500577,5:rtwwwwwwwwww70q72eiiiw",
"70e87575447eew9764>>:77quq222q002q007,55,47qww98444-*27quq2,20q2",
"w74>>:**>9*&444444205q7q728,259ew05>>*:*>7*&,5444,70,qqq2205757r",
"atw7754618iiiuiueq7,27q0670000wtatw6765548iiiureeq2277ww770878wt",
"ew9weww07eeqrewqq32,>5q75wwwq5wiew00ewww9euwueqqq22,>209790007wa",
"0650wew76-0000702-;:%*>>4::::&4e6750wew67:q000072;-:%*>::4:::&5e",
"67659www5#2,>##o. @7744:$#++++7w67660w7w6@2->%#o. @7744:$#++++6e",
"677679604o....o+++,q0ee9664:$$7e6777796w4+....++.o,e0rwww54:$$9e",
"656ww7w64=o=$::>:>76767655555:476767ww794%#==::::>77676655654:49",
"7976,*>1*1-:5444447www9799746>4676764>>;;;-;,5>5447w979796667446",
"5:*%232yy1:3334-%%@*6ww99996954644**823yy2-2314-&$@:79ww999974:7",
"*444ui23*-,00qqrq7*  %>>*>::>:#=*47*ui23->,0q2qre7*O+%>::*>:4*$&",
"qeq>pe7,-,0rq00007,$  ++#$@@$&,0ee8*pe7,:70ieq0w07,$  ++@#@@&&47",
"887;u885,00rq0700q7%@o*::->,,0q8788>u875,00ur070q02*oX*----,,380",
"777*8w770000q000000-%%;,22,01022727*q707770006000q0*#%-,8527,777",
"772*8q0q70rw00w08w8&---2227,,q20727*7q0w70r0w0000q7%;-;1205,1q27",
"qq7%:777qqe000057751>;1,770,28q00q2*>278qrqq0005772,>-2720072q87",
">1;*#..o####-=-#:,,4**;1>**&*;1>;1;*$.oooo##-::=*,,4&&*;--::*;1>",
"38,54ooooooo...##=:478721144&*>>38,5,+.oo=oo...o#%:58887,,4>%*1;",
"776w6-==-:==:=o::45wer6,>699>ptr07796=-#=-====o:>>6wee84>6004par",
"7600w4,4>5555:=:477wwww079945e996799r4>45,6,,:=>46wwww9906645w79",
"7679ww6660605-,456466999w779e9997699ww0669675-44555699999996ee99",
"::,6www06676,0654676767764444**4>:466ww0760050645065954644444*4*",
"$$&&50rqq0,7rr,4*4&&&&**>5744**&$&$&49req75wii744>:%***>47w944*&",
"44446qd07250wre:,44988qu4rw9996644448wder00wrpa5468wuiip5itw9t99"
};
