/* XPM */
static char *result[] = {
/* columns rows colors chars-per-pixel */
"64 64 61 1 ",
"  c #5D3712",
". c #5E3A14",
"X c #643E16",
"o c #664017",
"O c #694217",
"+ c #674118",
"@ c #6B4419",
"# c #6F481B",
"$ c #704719",
"% c #744C1D",
"& c #794F1D",
"* c #77501F",
"= c #7B521E",
"- c #754E21",
"; c #775122",
": c #7C5522",
"> c #7F5823",
", c #7B5728",
"< c #7E5928",
"1 c #82551F",
"2 c #815721",
"3 c #845B24",
"4 c #8A5E24",
"5 c #845D2A",
"6 c #885F28",
"7 c #876027",
"8 c #8B6126",
"9 c #87612C",
"0 c #8C642B",
"q c #8F682F",
"w c #936425",
"e c #976827",
"r c #986827",
"t c #92662A",
"y c #94692D",
"u c #9B6C2C",
"i c #9E702E",
"p c #876331",
"a c #8D6631",
"s c #8E6932",
"d c #936C33",
"f c #996F32",
"g c #967036",
"h c #9D7234",
"j c #967139",
"k c #9C753A",
"l c #9E793E",
"z c #A1722E",
"x c #A27534",
"c c #A57936",
"v c #AA7B36",
"b c #A17739",
"n c #A57A3A",
"m c #A97D3C",
"M c #A47D40",
"N c #A87F40",
"B c #AC803E",
"V c #B0813A",
"C c #AC8343",
"Z c #B08644",
"A c #B58A46",
/* pixels */
">=>##>>=>>3=#it055ddakjlasNN6pjjdjda5p--52;;;5552,$+-aaa06388>:t",
">>2*O>=>=333*eiu56djakjlaaNNp5jdjdja55-MM:5-;-;2p5k;-y00t85t832y",
">>37O>>=>=77#yii56hdakjMadNNh5jdjjfap92NNt6djp65Max2-aa6663t8>>y",
">=3yO=>>>7>7$tii5tNdakjMdsNmM5ddjjjaj5-MMffzjjdafaj;$a0t063tt>>u",
"==>u+==>>233#tiz5tNbsjjMjsNNNaaMjjk0d92Mxddxhfyaaad2$pta8738t>>u",
"o>=u#=>>>338#7ux6tNcjMjMjaNMNfpNjjkpdp2kxkdNxMhafaM22a660738w:>h",
"@#:i*%>==338%7iz6aNNaMjNMaNNNxaNMbk9jp5MxfyxMxxuxfN25f6a87338>>u",
"v=%y3+3>>33y=7hxtaAN5MjNsaAMmm6NNNNpj52MzMfNcxNxxiv&5f667783822i",
"Vu@4y.32=73i*7bx60NN6MjNaaNNNNaMNmNtM55MMfdccNxxxhm@3d0777328>1x",
"wv%:zX*3=>7i%>mc66Nx2Mdkd5dNNNfjNNmaM55MhMdcxxxxxnh-3y707772w3wz",
"8u2#h%@3>>7u%>nc55Nd-Mj9ap9NmNnaNmmaM52MxxdcxNxxcnf:2d077432w4wi",
"ww1@e3o8>37y;>7*-;52-ja5pp5MNmNaNNmaM55McMyMcxMMmdh:>y307372ww4z",
"ww1OeuX8>33u%hh6;MhMasNNj5<jNNNdNNbdM65hcMfcxMxxcdc&:y7077t1ww4u",
"4ww@1rX2023y%yi;-MajsdMjd55pNmNfANbdMa-MxMaxxzfckdc%3y037831ewwu",
"ww4$1r@%y>3y%yy%-ddjdaMap,5,NmNsANbdMd-hxMtcMhfcfhc%3y837848wwwr",
"w4w$1w=#u>3d%y402dddsaNpp,p,bNNsNNddMa-hxxacu6actfx&7y7>881wwwwr",
"4wwX4w1Xu23y#u20:yddq9m06;5,jNmdNmddbd-bxcaxcstc0xx&>83%0e3wwwwr",
"w4w&1w1Xy33u#y2y:ddqs3md5#<,gNndNbaskd:bzbtzxyyc6xz%>06@uu2wwuzw",
"www$1w4X733i#8>y:ysqq3cx3-<;jmcaMk6skd;hfcafxtyf6xz%:t3Oyz:ttuuu",
"w4w&4w1X7>3t#73y:7q0q>cx3,0-bmcdMd5dgy;dixtyxtuu6zu%XO@@$8&@XXXX",
"w4w14w1X7233#81t:2000:xh3,0-nchdks5afa;dyx8rzeue8zu%$&33%t8yyt8t",
"11w1ww1X7=>3O887:=706:xz::s-nchdky2yf6-fyx6ruuut6ur$%333>03>ty2t",
"11w1rr$X7=*4O8e7:=003>uz2%0-xxyhgy2af3-frz0wuruwtuu$&82037338t38",
"11w2rr$&8*%3o8w7:*403=uu3@7%xx0ddd:af2-hwxtwurr3eru$%e>407330830",
"12r2rtX&6-$3X883**733=uu1#7*xi0day:tz2$cwztwrer2eee$$y>840338y38",
"12r4y4X24%@4X481**733*ru=$7#xy3hpy-tx2$mrut3rwr2ywe@$y:74y330u38",
"11w1r4X33@@3X173**333$1w=O0*x03h6d:6z1@mere2rww=rweOOe>83y338y77",
"w4r1w:@4>@o2X43>==33=O&z=O7*i70g6t%4z1@vwet=ew4=r8e$Ou>80t33yu33",
"rrr1w%Xt3$o1X32>==>>#@ru=O8*u77y0e@3u1Xvwwr:ww43r8w@Oi188t37ui33",
"$&&X%XX2%oX@X42>>>=83o4u=O8*y73y64X:z1@zwwe&wr14rwrO$c1t7877uy33",
"$:$X$-X@@O#%X42>3>37=o7u=o8*y7>y08@%z&Xzw4r11r14rwwO%v1t3871yt73",
"vzw4z2X6z%=0 =>>>==7>O4r=Ot#t7=0t63%w1@zwwr31w14r1wO*V=83077yt73",
"zw14w%=zeO3>o=43=>231@4u:X8$y4-a030%7=Oiw4r24w14r4rX%c=82t77yt73",
"xrwwy>1uyO>%X=7333333$4u$X0%t4%6t4y=31ozw4w41w1wr4rX>y>03707u873",
"vr81y22zr$7=X=83>3333@4zXX8:t6$6y3y=21Xiwwww1w14wwrX:72t4707ht87",
"cr8wu7=iu$=2X&8337373$4xX$0:40-6t30>>1Xzwwtt4w12rwr$#33y4007hu87",
"vrriy8:ii%X:o=0337376$tz&$a:2t$t0373&1Ozwwwe244=rwr%X23y7007nh07",
"vriryy*xi>@=o=t3737=6@ed2$y26t-ay283%=@iwwww2ww&rwr$$63d7000hft0",
"8iuuyy=hi3#2o=y3777=2$uf,-2,-5@2=%=%@@@uwwrw4ww%wwr$-t3fy7q0hdy7",
"8uuiyu*iz3#7o>y3797ud@ff3#$@+--@@X%O@X+uerwr4ww&wrr$:t6hh3s0hqy0",
"iuiiyd:yz4&7O1y78037n7uh5;Muttuwu%Bvx&@urrruwwr1trr$:d7hn3s0hsd0",
"iiuuuu3tv7=0@2y70030xixh22diuazzh;BVu1@urrut1rr18uuO;y7hC:s0hhdq",
"iiihuu63v7>8@3d00q>9cuch5-tiuaxux:uuu3@uurz8wru11iro:y9hA:ssqmdd",
"iiuiudq:h020@2y00q7qhfnh52xhfyzfc27zu3@uuuc3rurw1zy+>g0gB00dqhdd",
"zhiiduf%yy70o>g9qs50khch5;Miffzhc63xu3@zuux3uuur>xy*,g0hhd3dqgdd",
"xzfuudd%yx99@=h0qs59khcb52xhzxxfxy:xi4@zuxf3uuuu=iu%3g0hfg0asqhy",
"uxixudy%0h00#:hqqd90kdcn52chxxhzxh:cx3%fzxy6xuuu:ui;>j0gfak7dqhs",
"xuuhudt-0y0q@>h0qd9alfnm55cxxbxxxx;hx4%hxcttxuux:yh-5hqddphd7sdd",
"ixuiui9*q90q#:haadpacdcN35NhbzcxuM2fM6$xxx6fxiii3fu:3katstdh5sdd",
"huiuyx7%000yO>hadgpaMsmN52mbczxxhM2xx6-xcf6xxhii6xd;3kssssag0syd",
"uxuxyx>>008yo0g0ds5aMsnN95mxxbxxxM2Mxw-xcytcxhix3fu-5kaydqqfqqsy",
"uuuu0c;3800g#ugqddp0nskNs2mxbcbxxx5xca&xmaacxxhx2us:2basqq0fqqs0",
"uiuutx%7079d#gqqadp0MjhNj5mbxcbcxx2xca&xmafcbxxi,zt;3btsqq0d7qq6",
"uuuuyh#8789u#sqqddpaMdjNk-nbzcxxxM6Mca-Mmtfcxxzh2zt-3kaaq0q05q03",
"uuuyiy%0770iOqqqdjpaNdjNk;NxhcbxMf6xct-cNfxMcbxx5cy-5ka3q000>q70",
"uuuwh2=8780y@qqqad9aMdjMj-nffcbcxu6Mca-cNdfcbxxx6cd-5ba,qq003070",
"euuwi*17777u+qqqddppNddMf-MytxhMcu6Mca&Mmdbcccck8cy%5k97s008307y",
"eee8y*87777y@qqqadapNdaMd&NttNzxxa6cMw&xNgcncxch0cd:5hsds000307i",
"eee88=83777u@yq0ada5NdjMd2v6tMxxcw6cNa-hmdnnbbcdtcg:5g0sqq08303i",
"ewwy7177377u#d0qddapNjjMa,N66Nxxca5Mcp2hndnccbmttch;9hqqq07077>i",
"www0>173333u#dqqada5MdaMa;N65NzxMt2MNa&hckhncxcpdxd&5hsqq07t773i",
"www8>2337770@y00ddd5Mjjka-N52Mzxxa2zv6-Mnkbnbxm6fxf%5kqsq00t873u",
"www8>2333377+y0qada5MjjMa-N15xxxxf5MNa2MNchNbxm6xcf$9hqqq08t77>i",
"8wwt>=733773@y00aaj5MjdMt2M2;xxxzi2zvp-yp55hfdp;yfdX7k0yq07773>i"
};
